<?xml version="1.0" encoding="UTF-8"?>
<svg version="1.1" xmlns="http://www.w3.org/2000/svg" width="199" height="207">
<path d="M0 0 C0.99 0 1.98 0 3 0 C9.80538581 12.23440147 14.34778359 24.8686445 15 39 C15.0515625 39.6909375 15.103125 40.381875 15.15625 41.09375 C16.03083451 62.37530635 8.46965492 82.21277342 -5.3125 98.3125 C-9.96455285 103.26442385 -15.20260304 107.45219126 -21 111 C-21.66 111 -22.32 111 -23 111 C-20.35599419 116.28801163 -16.18827808 119.94415759 -12 124 C-11.175 124.86625 -10.35 125.7325 -9.5 126.625 C-2.77275569 133.0158821 3.83928781 138.0834408 13.4609375 137.953125 C16.65664519 137.71743289 19.82204886 137.40768152 23 137 C23 138.32 23 139.64 23 141 C21.27734375 142.6328125 21.27734375 142.6328125 18.9375 144.125 C18.18339844 144.62257812 17.42929688 145.12015625 16.65234375 145.6328125 C6.95781056 150.62999456 -5.89341638 150.42293369 -16.43359375 148.3125 C-26.32362536 144.94568073 -36.71364739 138.02431628 -42.23950195 128.96875 C-43.98665705 126.40478361 -45.42904778 124.76128947 -48 123 C-53.33247993 122.090567 -58.56798714 122.42185312 -63.9375 122.75 C-86.43166998 123.92998839 -107.50088045 118.32564112 -124.75 103.125 C-128.94603806 99.17893867 -133.20854556 95.09999903 -136 90 C-136 89.01 -136 88.02 -136 87 C-134.75863281 86.60167969 -133.51726562 86.20335937 -132.23828125 85.79296875 C-130.59624897 85.25813538 -128.95432768 84.72296115 -127.3125 84.1875 C-126.49587891 83.92646484 -125.67925781 83.66542969 -124.83789062 83.39648438 C-121.37709777 82.2615685 -118.34797155 81.21349453 -115.23046875 79.30078125 C-112.61849289 77.77750987 -110.97423387 77.74506567 -108 78 C-107.50371094 79.0621875 -107.00742188 80.124375 -106.49609375 81.21875 C-100.34921527 94.116368 -93.80905821 104.31672075 -79.9375 109.8125 C-73.22346967 111.85068778 -65.96364055 111.75221402 -59 112 C-61.01705 108.33611803 -63.13047127 105.65639799 -66.25 102.875 C-66.97703125 102.21242188 -67.7040625 101.54984375 -68.453125 100.8671875 C-74.49119854 96.44050168 -79.70820554 95.57090404 -86.9375 95.8125 C-87.71673828 95.82603516 -88.49597656 95.83957031 -89.29882812 95.85351562 C-91.19952404 95.88849776 -93.09985834 95.94229041 -95 96 C-93.62740684 92.70857763 -92.29739691 91.20580047 -89.25 89.375 C-88.59515625 88.97023438 -87.9403125 88.56546875 -87.265625 88.1484375 C-78.67636871 83.79457311 -68.13386873 83.60358732 -58.875 86.0625 C-52.25527447 88.38774813 -44.26898568 91.67816698 -39.30859375 96.71875 C-37.9479667 98.34980105 -37.9479667 98.34980105 -35 98 C-22.26136382 82.26813236 -18.01961717 57.76637421 -20 38 C-20.60129019 33.78626372 -21.42679024 29.64431644 -22.34375 25.48828125 C-23.49663768 19.36013423 -23.49663768 19.36013423 -23 16 C-21.24089712 13.66998564 -19.61543145 11.77494849 -17.5625 9.75 C-13.85539875 6.19397377 -13.85539875 6.19397377 -11 2 C-7.74456771 2.34879632 -6.98126893 3.02133261 -4.75 5.5625 C-4.1725 6.366875 -3.595 7.17125 -3 8 C-2.01 5.36 -1.02 2.72 0 0 Z " fill="#71B075" transform="translate(176,49)"/>
<path d="M0 0 C2.25 1.5859375 2.25 1.5859375 4.25 3.5859375 C4.18359375 5.5703125 4.18359375 5.5703125 3.25 7.5859375 C1.03515625 8.8515625 1.03515625 8.8515625 -1.6875 9.8359375 C-2.58339844 10.17109375 -3.47929687 10.50625 -4.40234375 10.8515625 C-6.75 11.5859375 -6.75 11.5859375 -8.75 11.5859375 C-8.75 12.2459375 -8.75 12.9059375 -8.75 13.5859375 C-7.780625 13.8334375 -6.81125 14.0809375 -5.8125 14.3359375 C-2.75 15.5859375 -2.75 15.5859375 -1.5625 17.3359375 C-1.87710728 21.1112248 -4.15969339 22.99563089 -6.75 25.5859375 C-7.74 25.5859375 -8.73 25.5859375 -9.75 25.5859375 C-10.07871094 24.90789063 -10.40742188 24.22984375 -10.74609375 23.53125 C-16.86069053 11.56718801 -23.97733234 3.42028517 -36.75 -1.4140625 C-47.47013966 -4.28332812 -60.33467964 -3.35498607 -70.109375 1.83984375 C-82.92170061 9.72931271 -89.56161112 22.66509981 -93.125 36.8984375 C-95.23836111 45.83887383 -95.92290893 54.48842127 -95.875 63.6484375 C-95.87306641 64.55295654 -95.87113281 65.45747559 -95.86914062 66.3894043 C-95.81787105 74.48216443 -95.38895696 82.51910593 -94.75 90.5859375 C-117.78323021 100.87917591 -117.78323021 100.87917591 -125.75 98.5859375 C-133.04777081 73.67168738 -132.400937 49.3798656 -120.5625 25.8984375 C-110.30284179 7.82189684 -94.49617706 -4.73838339 -74.52612305 -10.34082031 C-71.61366191 -11.09835714 -68.69167885 -11.77986377 -65.75 -12.4140625 C-64.57123291 -12.67558105 -64.57123291 -12.67558105 -63.36865234 -12.94238281 C-41.58275389 -16.86652563 -18.37135141 -11.95181668 0 0 Z " fill="#273880" transform="translate(156.75,23.4140625)"/>
<path d="M0 0 C-0.3814974 8.10681977 -1.24594699 20.53644894 -6.6328125 26.94140625 C-7.08398438 27.29074219 -7.53515625 27.64007813 -8 28 C-8.61875 27.01 -8.61875 27.01 -9.25 26 C-9.8275 25.34 -10.405 24.68 -11 24 C-12.32 24 -13.64 24 -15 24 C-15.3403125 24.8353125 -15.3403125 24.8353125 -15.6875 25.6875 C-17.36574736 28.64441201 -19.58299654 30.60716658 -22 33 C-23.69458732 34.86859708 -25.38173374 36.74396145 -27.0625 38.625 C-36.25250705 48.73478989 -46.45563121 57.38405356 -57.28271484 65.67675781 C-58.91501327 66.93451406 -60.53177806 68.20951214 -62.14453125 69.4921875 C-86.44783175 88.62912601 -123.31203781 114.9138378 -156 112 C-160.74900181 111.03500283 -164.07829897 109.94474356 -167.5 106.4375 C-170.26346423 101.94687062 -170.801038 98.2179765 -170 93 C-165.93576857 82.18411375 -165.93576857 82.18411375 -161.796875 79.65234375 C-160.90742188 79.32943359 -160.90742188 79.32943359 -160 79 C-160.165 79.804375 -160.33 80.60875 -160.5 81.4375 C-161.88225444 89.65927554 -161.88225444 89.65927554 -158.8125 97 C-152.59196467 101.42349179 -145.19980054 100.08261985 -138 99 C-104.55840351 91.07691406 -71.77175686 68.95397927 -47.43212891 45.36279297 C-45.53882435 43.56115199 -43.56015108 41.87194383 -41.5625 40.1875 C-38.1416695 37.25956336 -35.28886694 33.98891367 -32.4453125 30.50390625 C-31.96835938 30.00761719 -31.49140625 29.51132812 -31 29 C-30.34 29 -29.68 29 -29 29 C-28.74347656 28.42507812 -28.48695313 27.85015625 -28.22265625 27.2578125 C-26.88359821 24.78504717 -25.32849133 22.95153746 -23.4375 20.875 C-20.92320784 18.13961955 -20.92320784 18.13961955 -19 15 C-21.31 14.34 -23.62 13.68 -26 13 C-25 10 -25 10 -22.91455078 8.74145508 C-22.01720215 8.33822021 -21.11985352 7.93498535 -20.1953125 7.51953125 C-19.21949219 7.07802734 -18.24367187 6.63652344 -17.23828125 6.18164062 C-16.21089844 5.72982422 -15.18351563 5.27800781 -14.125 4.8125 C-13.10535156 4.34908203 -12.08570313 3.88566406 -11.03515625 3.40820312 C-3.41563881 0 -3.41563881 0 0 0 Z " fill="#375085" transform="translate(179,24)"/>
<path d="M0 0 C0.93199219 -0.00257812 1.86398438 -0.00515625 2.82421875 -0.0078125 C3.80003906 -0.00007813 4.77585938 0.00765625 5.78125 0.015625 C7.24498047 0.00402344 7.24498047 0.00402344 8.73828125 -0.0078125 C9.67027344 -0.00523438 10.60226563 -0.00265625 11.5625 0 C12.41908203 0.00225586 13.27566406 0.00451172 14.15820312 0.00683594 C16.28125 0.265625 16.28125 0.265625 18.28125 2.265625 C18.61553439 5.23572704 18.78959874 8.03965993 18.84375 11.015625 C18.89337891 11.81484375 18.94300781 12.6140625 18.99414062 13.4375 C19.05196992 16.78609144 19.05655699 19.25582226 16.96875 21.97509766 C15.15307721 23.56484533 13.2822882 24.91741625 11.28125 26.265625 C9.96609537 27.24211953 8.65099186 28.21868293 7.3359375 29.1953125 C5.94610952 30.18189229 4.55277079 31.16354201 3.15625 32.140625 C2.41922852 32.65874756 1.68220703 33.17687012 0.92285156 33.71069336 C-5.47036343 38.16701021 -12.01605461 42.29188416 -18.71875 46.265625 C-19.6159375 46.83539063 -20.513125 47.40515625 -21.4375 47.9921875 C-23.71875 49.265625 -23.71875 49.265625 -25.96875 49.078125 C-27.71875 48.265625 -27.71875 48.265625 -28.71875 46.265625 C-28.80301094 44.5981644 -28.82600143 42.92737313 -28.81640625 41.2578125 C-28.81318359 40.27167969 -28.80996094 39.28554687 -28.80664062 38.26953125 C-28.79826172 37.23699219 -28.78988281 36.20445313 -28.78125 35.140625 C-28.77673828 34.10035156 -28.77222656 33.06007812 -28.76757812 31.98828125 C-28.75576952 29.41400538 -28.73930075 26.83984354 -28.71875 24.265625 C-26.31815183 23.06532592 -24.82514351 23.15102757 -22.1484375 23.16796875 C-21.25253906 23.17119141 -20.35664062 23.17441406 -19.43359375 23.17773438 C-18.49644531 23.18611328 -17.55929688 23.19449219 -16.59375 23.203125 C-15.64886719 23.20763672 -14.70398438 23.21214844 -13.73046875 23.21679688 C-11.39316613 23.22860143 -9.05598939 23.24506741 -6.71875 23.265625 C-6.72922363 22.63994629 -6.73969727 22.01426758 -6.75048828 21.36962891 C-6.79198191 18.5433349 -6.81805473 15.71710489 -6.84375 12.890625 C-6.86888672 11.41335937 -6.86888672 11.41335937 -6.89453125 9.90625 C-6.90097656 8.96523437 -6.90742187 8.02421875 -6.9140625 7.0546875 C-6.92453613 6.18537598 -6.93500977 5.31606445 -6.94580078 4.42041016 C-6.47689491 -0.02965779 -3.80829448 0.01002937 0 0 Z " fill="#274384" transform="translate(102.71875,55.734375)"/>
<path d="M0 0 C0.66 0.33 1.32 0.66 2 1 C2.96088383 3.88265149 3.11670941 5.67662271 3.09765625 8.66796875 C3.09443359 9.56064453 3.09121094 10.45332031 3.08789062 11.37304688 C3.07532227 12.76620117 3.07532227 12.76620117 3.0625 14.1875 C3.05798828 15.12787109 3.05347656 16.06824219 3.04882812 17.03710938 C3.03704626 19.35813712 3.02059558 21.67903644 3 24 C-2.15946865 25.7041678 -6.4425333 26.22225605 -11.9375 26.125 C-12.62134766 26.11597656 -13.30519531 26.10695313 -14.00976562 26.09765625 C-15.67333287 26.07438958 -17.33671631 26.03853167 -19 26 C-18.98428955 26.62567871 -18.9685791 27.25135742 -18.95239258 27.89599609 C-18.89015325 30.72223931 -18.85104538 33.54833861 -18.8125 36.375 C-18.78736328 37.35984375 -18.76222656 38.3446875 -18.73632812 39.359375 C-18.72666016 40.30039063 -18.71699219 41.24140625 -18.70703125 42.2109375 C-18.6913208 43.08024902 -18.67561035 43.94956055 -18.65942383 44.84521484 C-18.77181396 45.55629395 -18.8842041 46.26737305 -19 47 C-24.78492549 50.85661699 -33.54539493 49.40201624 -40.3125 48.625 C-41.199375 48.41875 -42.08625 48.2125 -43 48 C-45.30010804 43.39978391 -44.9776988 37.92997214 -44 33 C-41.24496024 29.7310989 -37.70293239 28.05821712 -34 26 C-31.64470246 24.43370304 -29.35396214 22.78285358 -27.0625 21.125 C-26.46655029 20.70025391 -25.87060059 20.27550781 -25.2565918 19.83789062 C-20.53066195 16.45038523 -16.02089922 12.84123941 -11.5546875 9.1171875 C-7.77519345 5.98494625 -3.89288185 2.98934878 0 0 Z " fill="#7BBD72" transform="translate(140,78)"/>
<path d="M0 0 C2.25 1.5859375 2.25 1.5859375 4.25 3.5859375 C4.18359375 5.5703125 4.18359375 5.5703125 3.25 7.5859375 C1.03515625 8.8515625 1.03515625 8.8515625 -1.6875 9.8359375 C-2.58339844 10.17109375 -3.47929687 10.50625 -4.40234375 10.8515625 C-6.75 11.5859375 -6.75 11.5859375 -8.75 11.5859375 C-8.75 12.2459375 -8.75 12.9059375 -8.75 13.5859375 C-7.780625 13.8334375 -6.81125 14.0809375 -5.8125 14.3359375 C-2.75 15.5859375 -2.75 15.5859375 -1.5625 17.3359375 C-1.87710728 21.1112248 -4.15969339 22.99563089 -6.75 25.5859375 C-7.74 25.5859375 -8.73 25.5859375 -9.75 25.5859375 C-10.24306641 24.56886719 -10.24306641 24.56886719 -10.74609375 23.53125 C-16.86069053 11.56718801 -23.97733234 3.42028517 -36.75 -1.4140625 C-42.17119363 -2.97091811 -47.83743993 -2.43205186 -53.41992188 -2.28710938 C-55.53016568 -2.25758333 -57.64127613 -2.32871435 -59.75 -2.4140625 C-60.41 -3.0740625 -61.07 -3.7340625 -61.75 -4.4140625 C-60.76 -4.4140625 -59.77 -4.4140625 -58.75 -4.4140625 C-58.42 -5.0740625 -58.09 -5.7340625 -57.75 -6.4140625 C-56.1 -6.0840625 -54.45 -5.7540625 -52.75 -5.4140625 C-52.75 -6.7340625 -52.75 -8.0540625 -52.75 -9.4140625 C-55.66499943 -10.20967014 -58.49561419 -10.66728749 -61.5 -10.9765625 C-62.29921875 -11.06035156 -63.0984375 -11.14414063 -63.921875 -11.23046875 C-64.52515625 -11.29105469 -65.1284375 -11.35164062 -65.75 -11.4140625 C-65.75 -11.7440625 -65.75 -12.0740625 -65.75 -12.4140625 C-43.454739 -17.37327929 -18.91182498 -12.30343159 0 0 Z " fill="#2A3B7D" transform="translate(156.75,23.4140625)"/>
<path d="M0 0 C0.66 0 1.32 0 2 0 C1.835 0.804375 1.67 1.60875 1.5 2.4375 C0.11774556 10.65927554 0.11774556 10.65927554 3.1875 18 C9.40803533 22.42349179 16.80019946 21.08261985 24 20 C33.65012747 17.71366211 42.48244448 14.14475744 51.24121094 9.50366211 C55.57070315 7.29855633 58.11891787 6.58585471 63 8 C63 7.34 63 6.68 63 6 C64.65 6.33 66.3 6.66 68 7 C67.67 7.99 67.34 8.98 67 10 C65.35 10 63.7 10 62 10 C61.67 10.66 61.34 11.32 61 12 C61.99 11.67 62.98 11.34 64 11 C63.8828125 12.765625 63.8828125 12.765625 63 15 C60.95522854 16.47919638 59.10174906 17.60859869 56.875 18.75 C56.22700439 19.08854004 55.57900879 19.42708008 54.91137695 19.77587891 C39.67847918 27.39847221 18.42669775 36.77017778 1.1875 31.8125 C-3.51635352 30.08857463 -5.77315778 27.45368444 -8 23 C-8.93720181 14.69906972 -6.25726448 9.06970603 -2 2 C-1.34 1.34 -0.68 0.68 0 0 Z " fill="#364783" transform="translate(17,103)"/>
<path d="M0 0 C-1.5058388 3.75197825 -3.66542374 5.64319773 -6.8125 8.125 C-7.66457031 8.80820313 -8.51664063 9.49140625 -9.39453125 10.1953125 C-11.88247581 11.91859644 -14.15268643 13.00829653 -17 14 C-14.35599419 19.28801163 -10.18827808 22.94415759 -6 27 C-5.175 27.86625 -4.35 28.7325 -3.5 29.625 C3.22724431 36.0158821 9.83928781 41.0834408 19.4609375 40.953125 C22.65664519 40.71743289 25.82204886 40.40768152 29 40 C29 41.32 29 42.64 29 44 C27.27734375 45.6328125 27.27734375 45.6328125 24.9375 47.125 C24.18339844 47.62257812 23.42929688 48.12015625 22.65234375 48.6328125 C12.95781056 53.62999456 0.10658362 53.42293369 -10.43359375 51.3125 C-23.14631405 46.98476543 -32.20553805 37.86382187 -40.26171875 27.46875 C-41.96769492 25.73841263 -41.96769492 25.73841263 -44.70703125 25.78125 C-45.46371094 25.8534375 -46.22039062 25.925625 -47 26 C-46.67 25.34 -46.34 24.68 -46 24 C-43.49609375 23.5859375 -43.49609375 23.5859375 -40.4375 23.375 C-39.42558594 23.30023438 -38.41367188 23.22546875 -37.37109375 23.1484375 C-36.58863281 23.09945312 -35.80617187 23.05046875 -35 23 C-34.85175781 23.60457031 -34.70351562 24.20914063 -34.55078125 24.83203125 C-33.89929266 27.39640123 -33.21201924 29.639752 -32 32 C-30.01954441 32.66179847 -30.01954441 32.66179847 -28 33 C-26 36 -26 36 -26 39 C-23.36 39 -20.72 39 -18 39 C-18 40.98 -18 42.96 -18 45 C-16.68 45 -15.36 45 -14 45 C-14 45.66 -14 46.32 -14 47 C-13.34 47 -12.68 47 -12 47 C-12 46.34 -12 45.68 -12 45 C-10.02 45 -8.04 45 -6 45 C-5.67 45.99 -5.34 46.98 -5 48 C-4.505 47.2575 -4.505 47.2575 -4 46.5 C-0.82427253 44.11820439 2.10246066 44.80831774 6 45 C6 43.68 6 42.36 6 41 C5.34 41 4.68 41 4 41 C4 40.34 4 39.68 4 39 C1.03 39.495 1.03 39.495 -2 40 C-2 38.35 -2 36.7 -2 35 C-2.99 35 -3.98 35 -5 35 C-5.495 33.02 -5.495 33.02 -6 31 C-6.99 31 -7.98 31 -9 31 C-9.495 29.02 -9.495 29.02 -10 27 C-10.99 27 -11.98 27 -13 27 C-13 25.68 -13 24.36 -13 23 C-14.11375 23.020625 -15.2275 23.04125 -16.375 23.0625 C-20 23 -20 23 -22 22 C-22 21.34 -22 20.68 -22 20 C-21.01 20 -20.02 20 -19 20 C-19 19.34 -19 18.68 -19 18 C-19.66 17.67 -20.32 17.34 -21 17 C-20.5359375 16.195625 -20.5359375 16.195625 -20.0625 15.375 C-18.82172561 12.6015043 -18.4090325 9.99957163 -18 7 C-15.36 6.67 -12.72 6.34 -10 6 C-9.67 4.68 -9.34 3.36 -9 2 C-2.25 0 -2.25 0 0 0 Z " fill="#8ACB68" transform="translate(170,146)"/>
<path d="M0 0 C1.31495542 2.60295276 2.62704986 5.20728033 3.9375 7.8125 C4.31068359 8.55048828 4.68386719 9.28847656 5.06835938 10.04882812 C5.42607422 10.76103516 5.78378906 11.47324219 6.15234375 12.20703125 C6.48226318 12.8616333 6.81218262 13.51623535 7.15209961 14.19067383 C8 16 8 16 9 19 C7.68 18.67 6.36 18.34 5 18 C5.0825 19.093125 5.165 20.18625 5.25 21.3125 C5 25 5 25 3.3125 26.875 C0.85981018 28.06820046 -1.30513023 28.62571253 -4 29 C-4 29.66 -4 30.32 -4 31 C-4.66 31 -5.32 31 -6 31 C-6 30.34 -6 29.68 -6 29 C-6.71285156 29.25652344 -7.42570312 29.51304687 -8.16015625 29.77734375 C-11 30 -11 30 -13.68359375 28.19140625 C-14.59238281 27.32386719 -15.50117187 26.45632812 -16.4375 25.5625 C-16.91614502 25.10673584 -17.39479004 24.65097168 -17.88793945 24.18139648 C-21.65477487 20.51928407 -25.46019846 16.64022813 -28 12 C-28 11.01 -28 10.02 -28 9 C-26.75863281 8.60167969 -25.51726563 8.20335937 -24.23828125 7.79296875 C-22.59624897 7.25813538 -20.95432768 6.72296115 -19.3125 6.1875 C-18.49587891 5.92646484 -17.67925781 5.66542969 -16.83789062 5.39648438 C-13.37709777 4.2615685 -10.34797155 3.21349453 -7.23046875 1.30078125 C-4.61849289 -0.22249013 -2.97423387 -0.25493433 0 0 Z " fill="#62A67A" transform="translate(68,127)"/>
<path d="M0 0 C4.72025098 1.60689395 7.73647655 3.50360352 11.375 6.9375 C15.5999476 10.87356229 19.66975322 12.94128136 25 15 C26.34020507 15.65274237 27.675714 16.31553757 29 17 C28.505 18.485 28.505 18.485 28 20 C28.85464844 20.04898438 29.70929688 20.09796875 30.58984375 20.1484375 C31.69457031 20.22320312 32.79929688 20.29796875 33.9375 20.375 C35.03964844 20.44460937 36.14179687 20.51421875 37.27734375 20.5859375 C38.17582031 20.72257812 39.07429688 20.85921875 40 21 C40.495 21.99 40.495 21.99 41 23 C38.69 23 36.38 23 34 23 C34 23.66 34 24.32 34 25 C32.93458984 25.07347656 32.93458984 25.07347656 31.84765625 25.1484375 C30.92855469 25.22320312 30.00945312 25.29796875 29.0625 25.375 C27.68771484 25.47941406 27.68771484 25.47941406 26.28515625 25.5859375 C25.53105469 25.72257812 24.77695313 25.85921875 24 26 C23.67 26.66 23.34 27.32 23 28 C9.73269317 24.9862336 -2.21921598 20.99112183 -14 14 C-13.67 13.01 -13.34 12.02 -13 11 C-10 12 -10 12 -9 13 C-8.67 12.34 -8.34 11.68 -8 11 C-6.00428677 10.32060826 -4.00405227 9.65438441 -2 9 C0.41121859 7.04366025 0.41121859 7.04366025 0.125 3.375 C0.08375 2.26125 0.0425 1.1475 0 0 Z " fill="#6DB371" transform="translate(72,144)"/>
<path d="M0 0 C0.66 0.33 1.32 0.66 2 1 C2.96088383 3.88265149 3.11670941 5.67662271 3.09765625 8.66796875 C3.09443359 9.56064453 3.09121094 10.45332031 3.08789062 11.37304688 C3.07951172 12.30181641 3.07113281 13.23058594 3.0625 14.1875 C3.05798828 15.12787109 3.05347656 16.06824219 3.04882812 17.03710938 C3.03704626 19.35813712 3.02059558 21.67903644 3 24 C-2.15946865 25.7041678 -6.4425333 26.22225605 -11.9375 26.125 C-12.62134766 26.11597656 -13.30519531 26.10695313 -14.00976562 26.09765625 C-15.67333287 26.07438958 -17.33671631 26.03853167 -19 26 C-19 27.98 -19 29.96 -19 32 C-20.98 32.495 -20.98 32.495 -23 33 C-23 31.02 -23 29.04 -23 27 C-24.32 26.67 -25.64 26.34 -27 26 C-26 23 -26 23 -23 21 C-22.32324219 19.83597656 -22.32324219 19.83597656 -21.6328125 18.6484375 C-19.74138946 15.58053123 -17.69872406 13.85340902 -14.875 11.625 C-13.90691406 10.85542969 -12.93882813 10.08585937 -11.94140625 9.29296875 C-10.97074219 8.53628906 -10.00007813 7.77960938 -9 7 C-7.65228516 5.94232422 -7.65228516 5.94232422 -6.27734375 4.86328125 C-4.19138342 3.23352144 -2.09952329 1.61222653 0 0 Z " fill="#78BA74" transform="translate(140,78)"/>
<path d="M0 0 C1.24040039 0.01353516 1.24040039 0.01353516 2.50585938 0.02734375 C4.52486708 0.05068488 6.54372356 0.08654712 8.5625 0.125 C8.5625 1.775 8.5625 3.425 8.5625 5.125 C11.2025 5.125 13.8425 5.125 16.5625 5.125 C16.5625 5.455 16.5625 5.785 16.5625 6.125 C15.14706585 6.32158808 13.73005969 6.50687546 12.3125 6.6875 C11.52359375 6.79191406 10.7346875 6.89632813 9.921875 7.00390625 C7.55717126 7.12527349 5.8113963 6.82133257 3.5625 6.125 C2.9025 7.115 2.2425 8.105 1.5625 9.125 C-0.90625 10.1953125 -0.90625 10.1953125 -3.9375 11.25 C-12.43965725 14.62630793 -19.00385676 20.0792832 -23.4375 28.125 C-24.4275 27.795 -25.4175 27.465 -26.4375 27.125 C-26.4375 26.465 -26.4375 25.805 -26.4375 25.125 C-25.4475 25.125 -24.4575 25.125 -23.4375 25.125 C-23.4375 23.475 -23.4375 21.825 -23.4375 20.125 C-22.4475 19.795 -21.4575 19.465 -20.4375 19.125 C-20.7675 17.805 -21.0975 16.485 -21.4375 15.125 C-22.0975 15.785 -22.7575 16.445 -23.4375 17.125 C-23.4375 16.465 -23.4375 15.805 -23.4375 15.125 C-24.0975 15.125 -24.7575 15.125 -25.4375 15.125 C-26.0975 13.805 -26.7575 12.485 -27.4375 11.125 C-29.0875 11.455 -30.7375 11.785 -32.4375 12.125 C-32.4375 11.135 -32.4375 10.145 -32.4375 9.125 C-29.91909568 7.99428786 -27.39801069 6.87035012 -24.875 5.75 C-24.17052734 5.43289062 -23.46605469 5.11578125 -22.74023438 4.7890625 C-15.03758412 1.38143843 -8.41310831 -0.17626174 0 0 Z " fill="#2D347A" transform="translate(95.4375,11.875)"/>
<path d="M0 0 C0.99 0 1.98 0 3 0 C3.86627399 1.59766103 4.71766465 3.20339944 5.5625 4.8125 C6.03816406 5.70582031 6.51382813 6.59914063 7.00390625 7.51953125 C8 10 8 10 7 13 C6.34 13 5.68 13 5 13 C4.67 13.99 4.34 14.98 4 16 C3.360625 15.814375 2.72125 15.62875 2.0625 15.4375 C1.0415625 15.2209375 1.0415625 15.2209375 0 15 C-0.33 15.33 -0.66 15.66 -1 16 C-4 16 -4 16 -6 15 C-6 14.67 -6 14.34 -6 14 C-10.96911366 15.12697043 -10.96911366 15.12697043 -15 18 C-16.07075235 21.58054655 -16.07075235 21.58054655 -15 25 C-15.66084583 27.33498858 -16.32811503 29.66816393 -17 32 C-17.16928543 34.79244045 -17.16928543 34.79244045 -17 37 C-18.485 37.495 -18.485 37.495 -20 38 C-20.50688605 35.45953542 -21.00566874 32.91791124 -21.5 30.375 C-21.64308594 29.66214844 -21.78617188 28.94929688 -21.93359375 28.21484375 C-23.56592707 19.7422565 -23.56592707 19.7422565 -23 16 C-21.24089712 13.66998564 -19.61543145 11.77494849 -17.5625 9.75 C-13.85539875 6.19397377 -13.85539875 6.19397377 -11 2 C-7.74456771 2.34879632 -6.98126893 3.02133261 -4.75 5.5625 C-4.1725 6.366875 -3.595 7.17125 -3 8 C-2.01 5.36 -1.02 2.72 0 0 Z " fill="#447587" transform="translate(176,49)"/>
<path d="M0 0 C0.12375 0.556875 0.2475 1.11375 0.375 1.6875 C1.07760904 4.28715346 1.76657238 6.598062 3 9 C4.98045559 9.66179847 4.98045559 9.66179847 7 10 C9 13 9 13 9 16 C11.64 16 14.28 16 17 16 C17 17.98 17 19.96 17 22 C18.32 22 19.64 22 21 22 C21 22.66 21 23.32 21 24 C21.66 24 22.32 24 23 24 C23 23.34 23 22.68 23 22 C24.98 22 26.96 22 29 22 C29.495 23.485 29.495 23.485 30 25 C30.33 24.505 30.66 24.01 31 23.5 C34.17572747 21.11820439 37.10246066 21.80831774 41 22 C41 21.34 41 20.68 41 20 C42.65 20 44.3 20 46 20 C46 21.32 46 22.64 46 24 C46.185625 24.721875 46.37125 25.44375 46.5625 26.1875 C46.706875 26.785625 46.85125 27.38375 47 28 C44.65943327 30.34056673 38.41470575 29.31110188 35.14282227 29.31689453 C21.43428777 29.09781763 11.2796854 22.75050106 1.91015625 13.1015625 C-0.61051945 10.32830375 -2.96622922 7.43067197 -5.26171875 4.46875 C-6.96769492 2.73841263 -6.96769492 2.73841263 -9.70703125 2.78125 C-10.84205078 2.88953125 -10.84205078 2.88953125 -12 3 C-11.67 2.34 -11.34 1.68 -11 1 C-7.29882394 0.15882362 -3.78728969 -0.11139087 0 0 Z " fill="#8AC766" transform="translate(135,169)"/>
<path d="M0 0 C1.83203125 1.3046875 1.83203125 1.3046875 3 3 C2.99609375 5.046875 2.99609375 5.046875 2 7 C-0.21484375 8.265625 -0.21484375 8.265625 -2.9375 9.25 C-3.83339844 9.58515625 -4.72929687 9.9203125 -5.65234375 10.265625 C-8 11 -8 11 -10 11 C-10 11.66 -10 12.32 -10 13 C-9.030625 13.2475 -8.06125 13.495 -7.0625 13.75 C-4 15 -4 15 -2.8125 16.75 C-3.12710728 20.5252873 -5.40969339 22.40969339 -8 25 C-8.99 25 -9.98 25 -11 25 C-11.98484108 23.25318707 -12.96266187 21.5024149 -13.9375 19.75 C-14.48277344 18.77546875 -15.02804688 17.8009375 -15.58984375 16.796875 C-17.35629896 13.29332395 -18 10.9060626 -18 7 C-17.34 7 -16.68 7 -16 7 C-16 6.34 -16 5.68 -16 5 C-15.34 4.67 -14.68 4.34 -14 4 C-14.33 3.34 -14.66 2.68 -15 2 C-9.96620069 -1.22679443 -5.6695765 -1.70627255 0 0 Z " fill="#2D4177" transform="translate(158,24)"/>
<path d="M0 0 C2.475 0.495 2.475 0.495 5 1 C4.67 1.99 4.34 2.98 4 4 C2.35 4 0.7 4 -1 4 C-1.33 4.66 -1.66 5.32 -2 6 C-1.01 5.67 -0.02 5.34 1 5 C0.9375 6.734375 0.9375 6.734375 0 9 C-2.33363026 10.63115993 -4.49157818 11.95136692 -7 13.25 C-7.67683838 13.60771484 -8.35367676 13.96542969 -9.05102539 14.33398438 C-14.26517607 16.94634664 -18.13925316 17.82256096 -24 17 C-22.68 16.01 -21.36 15.02 -20 14 C-20.94875 14.020625 -21.8975 14.04125 -22.875 14.0625 C-26 14 -26 14 -28 13 C-28 12.34 -28 11.68 -28 11 C-24.77473823 9.51221073 -21.5441667 8.03631893 -18.3125 6.5625 C-16.94448242 5.93118164 -16.94448242 5.93118164 -15.54882812 5.28710938 C-14.66259766 4.88427734 -13.77636719 4.48144531 -12.86328125 4.06640625 C-12.05157471 3.69459229 -11.23986816 3.32277832 -10.40356445 2.93969727 C-6.51413557 1.41908662 -4.02035894 0.65988035 0 2 C0 1.34 0 0.68 0 0 Z " fill="#283E7E" transform="translate(80,109)"/>
<path d="M0 0 C2.31 0.33 4.62 0.66 7 1 C7.5625 2.9375 7.5625 2.9375 8 5 C7.67 5.33 7.34 5.66 7 6 C7.598125 6.0825 8.19625 6.165 8.8125 6.25 C11.65361183 7.22409548 12.54982079 8.40494247 14 11 C13.67 11.99 13.34 12.98 13 14 C12.5875 13.34 12.175 12.68 11.75 12 C11.1725 11.34 10.595 10.68 10 10 C8.68 10 7.36 10 6 10 C5.773125 10.556875 5.54625 11.11375 5.3125 11.6875 C3.63569499 14.64187072 1.42675648 16.63102343 -1 19 C-1.61875 19.9075 -2.2375 20.815 -2.875 21.75 C-5.71919307 24.76149854 -7.96185911 24.76703033 -12 25 C-10.7508258 21.54074837 -9.32472205 18.85306797 -7 16 C-7.99 15.67 -8.98 15.34 -10 15 C-9.34 15 -8.68 15 -8 15 C-7.74347656 14.42507812 -7.48695313 13.85015625 -7.22265625 13.2578125 C-5.88359821 10.78504717 -4.32849133 8.95153746 -2.4375 6.875 C0.07679216 4.13961955 0.07679216 4.13961955 2 1 C1.34 0.67 0.68 0.34 0 0 Z " fill="#315198" transform="translate(158,38)"/>
<path d="M0 0 C1.41791408 0.45445964 2.83428046 0.91374944 4.25 1.375 C5.43335937 1.75785156 5.43335937 1.75785156 6.640625 2.1484375 C8.86627958 2.95173667 10.90931672 3.89711662 13 5 C12.67 5.99 12.34 6.98 12 8 C12.85464844 8.04898438 13.70929688 8.09796875 14.58984375 8.1484375 C15.69457031 8.22320312 16.79929687 8.29796875 17.9375 8.375 C19.59072266 8.47941406 19.59072266 8.47941406 21.27734375 8.5859375 C22.62505859 8.79089844 22.62505859 8.79089844 24 9 C24.495 9.99 24.495 9.99 25 11 C22.69 11 20.38 11 18 11 C18 11.66 18 12.32 18 13 C16.93458984 13.07347656 16.93458984 13.07347656 15.84765625 13.1484375 C14.92855469 13.22320312 14.00945312 13.29796875 13.0625 13.375 C12.14597656 13.44460937 11.22945312 13.51421875 10.28515625 13.5859375 C9.53105469 13.72257813 8.77695313 13.85921875 8 14 C7.67 14.66 7.34 15.32 7 16 C1.72 14.68 -3.56 13.36 -9 12 C-6 10 -6 10 -2.8125 10.375 C-1.884375 10.58125 -0.95625 10.7875 0 11 C0 9.68 0 8.36 0 7 C-1.98 7 -3.96 7 -6 7 C-4.71034824 5.62437146 -3.37310707 4.29233607 -2 3 C-1.34 3 -0.68 3 0 3 C0 2.01 0 1.02 0 0 Z " fill="#80BE77" transform="translate(88,156)"/>
<path d="M0 0 C0 3.39593478 -0.52165948 4.06619881 -2.5 6.6875 C-3.19609375 7.62142578 -3.19609375 7.62142578 -3.90625 8.57421875 C-4.2671875 9.04472656 -4.628125 9.51523437 -5 10 C-3.35 9.34 -1.7 8.68 0 8 C0 11 0 11 -1.5390625 12.90234375 C-9.85856932 21.01931576 -9.85856932 21.01931576 -14 23 C-17.375 22.25 -17.375 22.25 -20 21 C-20 21.99 -20 22.98 -20 24 C-21.65 23.67 -23.3 23.34 -25 23 C-20.84868421 17.86547783 -16.3581825 13.51199138 -11.40234375 9.15234375 C-9.36897553 7.33057807 -7.45343824 5.46638714 -5.5625 3.5 C-3 1 -3 1 0 0 Z " fill="#2C4983" transform="translate(151,53)"/>
<path d="M0 0 C0.66 0 1.32 0 2 0 C1.67 1.134375 1.34 2.26875 1 3.4375 C-0.27619989 8.53324851 -0.841172 13.95575847 0.57421875 19.078125 C1 21 1 21 0 24 C-7.26 24 -14.52 24 -22 24 C-22.33 29.28 -22.66 34.56 -23 40 C-21.68 40.33 -20.36 40.66 -19 41 C-18.34 41.66 -17.68 42.32 -17 43 C-17.375 45.125 -17.375 45.125 -18 47 C-20.475 47.495 -20.475 47.495 -23 48 C-25.20192224 44.69711664 -25.23959968 43.72537273 -25.1953125 39.89453125 C-25.18886719 38.91162109 -25.18242188 37.92871094 -25.17578125 36.91601562 C-25.15902344 35.89185547 -25.14226562 34.86769531 -25.125 33.8125 C-25.11597656 32.77673828 -25.10695313 31.74097656 -25.09765625 30.67382812 C-25.0740786 28.11565315 -25.0411703 25.55794252 -25 23 C-22.59940183 21.79970092 -21.10639351 21.88540257 -18.4296875 21.90234375 C-17.62257324 21.90484131 -16.81545898 21.90733887 -15.98388672 21.90991211 C-14.44498779 21.92356812 -14.44498779 21.92356812 -12.875 21.9375 C-7.986875 21.9684375 -7.986875 21.9684375 -3 22 C-3 15.4 -3 8.8 -3 2 C-2.01 2 -1.02 2 0 2 C0 1.34 0 0.68 0 0 Z " fill="#253C74" transform="translate(99,57)"/>
<path d="M0 0 C0.99 1.32 1.98 2.64 3 4 C1.35 4.33 -0.3 4.66 -2 5 C0.475 5.495 0.475 5.495 3 6 C3 7.65 3 9.3 3 11 C4.32 11.33 5.64 11.66 7 12 C6 13 6 13 3.40795898 13.11352539 C2.28204346 13.10828857 1.15612793 13.10305176 -0.00390625 13.09765625 C-1.21884766 13.09443359 -2.43378906 13.09121094 -3.68554688 13.08789062 C-4.96494141 13.07951172 -6.24433594 13.07113281 -7.5625 13.0625 C-8.84576172 13.05798828 -10.12902344 13.05347656 -11.45117188 13.04882812 C-14.63416022 13.03699545 -17.81705762 13.02051068 -21 13 C-21 12.34 -21 11.68 -21 11 C-17.7 10.67 -14.4 10.34 -11 10 C-11 9.34 -11 8.68 -11 8 C-9.02 7.67 -7.04 7.34 -5 7 C-10.94 6.01 -10.94 6.01 -17 5 C-17 4.34 -17 3.68 -17 3 C-18.32 2.67 -19.64 2.34 -21 2 C-14.07 2 -7.14 2 0 2 C0 1.34 0 0.68 0 0 Z " fill="#77BA6D" transform="translate(117,159)"/>
<path d="M0 0 C0 0.99 0 1.98 0 3 C-0.66 3 -1.32 3 -2 3 C-1.979375 3.94875 -1.95875 4.8975 -1.9375 5.875 C-2 9 -2 9 -3 11 C-10.26 11 -17.52 11 -25 11 C-22.12569351 5.25138702 -17.80746446 3.25439901 -12.0625 0.6875 C-8.00529883 -0.22330026 -4.13882824 -0.16555313 0 0 Z " fill="#68AF7C" transform="translate(106,134)"/>
<path d="M0 0 C0.33 0 0.66 0 1 0 C2.71535333 5.52724962 3.10744513 9.53271514 2.125 15.25 C-0.3366486 29.95636518 0.82776436 45.20052499 2 60 C0.02 60.66 -1.96 61.32 -4 62 C-4.09765625 55.84765625 -4.09765625 55.84765625 -4 54 C-3.505 53.505 -3.505 53.505 -3 53 C-2.86403775 50.19661516 -2.78922765 47.41457211 -2.75390625 44.609375 C-2.72090795 42.84895448 -2.68769752 41.08853793 -2.65429688 39.328125 C-2.60732181 36.55732624 -2.5630252 33.78653588 -2.52319336 31.015625 C-2.36464956 20.50426601 -2.04399053 10.34538748 0 0 Z " fill="#323F73" transform="translate(60,54)"/>
<path d="M0 0 C0.12375 0.556875 0.2475 1.11375 0.375 1.6875 C1.07760904 4.28715346 1.76657238 6.598062 3 9 C4.98045559 9.66179847 4.98045559 9.66179847 7 10 C9 13 9 13 9 16 C11.64 16 14.28 16 17 16 C17 17.98 17 19.96 17 22 C18.32 22 19.64 22 21 22 C21.495 23.485 21.495 23.485 22 25 C13.07533988 24.62813916 7.73275304 18.99852644 1.72265625 12.87890625 C-0.73243342 10.20113271 -2.99616761 7.37077968 -5.2265625 4.50390625 C-6.95951678 2.73851345 -6.95951678 2.73851345 -9.7109375 2.77734375 C-10.84402344 2.88755859 -10.84402344 2.88755859 -12 3 C-11.67 2.34 -11.34 1.68 -11 1 C-7.29882394 0.15882362 -3.78728969 -0.11139087 0 0 Z " fill="#84BE68" transform="translate(135,169)"/>
<path d="M0 0 C-1.5058388 3.75197825 -3.66542374 5.64319773 -6.8125 8.125 C-7.66457031 8.80820313 -8.51664063 9.49140625 -9.39453125 10.1953125 C-11.88247581 11.91859644 -14.15268643 13.00829653 -17 14 C-15.03681826 17.53372712 -12.95929119 20.24479785 -10 23 C-11 26 -11 26 -13 27 C-13 25.68 -13 24.36 -13 23 C-14.11375 23.020625 -15.2275 23.04125 -16.375 23.0625 C-20 23 -20 23 -22 22 C-22 21.34 -22 20.68 -22 20 C-21.01 20 -20.02 20 -19 20 C-19 19.34 -19 18.68 -19 18 C-19.66 17.67 -20.32 17.34 -21 17 C-20.5359375 16.195625 -20.5359375 16.195625 -20.0625 15.375 C-18.82172561 12.6015043 -18.4090325 9.99957163 -18 7 C-15.36 6.67 -12.72 6.34 -10 6 C-9.67 4.68 -9.34 3.36 -9 2 C-2.25 0 -2.25 0 0 0 Z " fill="#8BC678" transform="translate(170,146)"/>
<path d="M0 0 C0.66 0 1.32 0 2 0 C1.84402344 0.81984375 1.68804687 1.6396875 1.52734375 2.484375 C0.83127679 7.12482142 0.65454978 11.74444988 0.48242188 16.4296875 C0.21674877 21.78325123 0.21674877 21.78325123 -2 24 C-3.32 24 -4.64 24 -6 24 C-6 23.01 -6 22.02 -6 21 C-6.66 21 -7.32 21 -8 21 C-8.99457029 13.70648456 -5.62064299 8.18135681 -2 2 C-1.34 1.34 -0.68 0.68 0 0 Z " fill="#172664" transform="translate(17,103)"/>
<path d="M0 0 C0.66 0 1.32 0 2 0 C2.48509793 1.37291868 2.96275513 2.74846703 3.4375 4.125 C3.70433594 4.89070313 3.97117188 5.65640625 4.24609375 6.4453125 C5.98943037 12.35278477 6.18254603 18.07925803 6.1875 24.1875 C6.19974609 24.99380859 6.21199219 25.80011719 6.22460938 26.63085938 C6.22654297 27.40623047 6.22847656 28.18160156 6.23046875 28.98046875 C6.23457764 29.68067139 6.23868652 30.38087402 6.24291992 31.10229492 C6 33 6 33 4 36 C2.08066376 34.39897421 1.08781504 33.53468135 0.67529297 31.02294922 C0.69736816 30.29092285 0.71944336 29.55889648 0.7421875 28.8046875 C0.75636719 28.00675781 0.77054688 27.20882812 0.78515625 26.38671875 C0.81480469 25.55785156 0.84445313 24.72898437 0.875 23.875 C0.95256301 20.91391815 0.99410973 17.96280531 1 15 C0.67 14.67 0.34 14.34 0 14 C-0.07271741 11.64686445 -0.08370868 9.29166332 -0.0625 6.9375 C-0.05347656 5.64714844 -0.04445312 4.35679688 -0.03515625 3.02734375 C-0.02355469 2.02832031 -0.01195312 1.02929688 0 0 Z " fill="#66A47A" transform="translate(184,64)"/>
<path d="M0 0 C1.34616298 2.69232596 0.66033913 3.92547187 -0.0625 6.8125 C-1.00218064 11.09940904 -0.74231751 12.97089076 1 17 C0.411438 19.354248 -0.25740651 21.68970915 -1 24 C-1.16928543 26.79244045 -1.16928543 26.79244045 -1 29 C-1.99 29.33 -2.98 29.66 -4 30 C-4.50688605 27.45953542 -5.00566874 24.91791124 -5.5 22.375 C-5.64308594 21.66214844 -5.78617188 20.94929688 -5.93359375 20.21484375 C-7.99459515 9.51726505 -7.99459515 9.51726505 -5.46875 5.6640625 C-4.8190625 4.99117187 -4.169375 4.31828125 -3.5 3.625 C-2.8503125 2.93664063 -2.200625 2.24828125 -1.53125 1.5390625 C-0.77328125 0.77722656 -0.77328125 0.77722656 0 0 Z " fill="#4F7D91" transform="translate(160,57)"/>
<path d="M0 0 C1.17369141 0.10054687 1.17369141 0.10054687 2.37109375 0.203125 C4.99465888 0.85784714 6.04706829 1.5102433 7.5625 3.75 C7.53515625 5.828125 7.53515625 5.828125 6.5625 7.75 C4.49609375 8.796875 4.49609375 8.796875 2 9.5 C1.17371094 9.74234375 0.34742188 9.9846875 -0.50390625 10.234375 C-1.46103516 10.48960938 -1.46103516 10.48960938 -2.4375 10.75 C-2.4375 9.76 -2.4375 8.77 -2.4375 7.75 C1.0275 7.255 1.0275 7.255 4.5625 6.75 C4.2325 5.76 3.9025 4.77 3.5625 3.75 C1.2525 3.75 -1.0575 3.75 -3.4375 3.75 C-3.4375 4.41 -3.4375 5.07 -3.4375 5.75 C-2.4475 6.08 -1.4575 6.41 -0.4375 6.75 C-2.4175 7.08 -4.3975 7.41 -6.4375 7.75 C-6.4375 7.09 -6.4375 6.43 -6.4375 5.75 C-7.7575 5.09 -9.0775 4.43 -10.4375 3.75 C-6.65799333 0.85237822 -4.80127062 -0.47303159 0 0 Z M-11.4375 5.75 C-10.4475 5.75 -9.4575 5.75 -8.4375 5.75 C-8.788125 6.69875 -9.13875 7.6475 -9.5 8.625 C-10.78776777 11.62060172 -10.78776777 11.62060172 -9.4375 13.75 C-10.4275 14.08 -11.4175 14.41 -12.4375 14.75 C-13.12457555 12.25935112 -13.4375 10.37113708 -13.4375 7.75 C-12.7775 7.75 -12.1175 7.75 -11.4375 7.75 C-11.4375 7.09 -11.4375 6.43 -11.4375 5.75 Z " fill="#2A4388" transform="translate(153.4375,23.25)"/>
<path d="M0 0 C0.33 0.66 0.66 1.32 1 2 C3.31 2 5.62 2 8 2 C7.67 2.66 7.34 3.32 7 4 C7.66 4.66 8.32 5.32 9 6 C6.77518771 6.70146314 4.54492632 7.38565954 2.3125 8.0625 C1.07113281 8.44535156 -0.17023437 8.82820313 -1.44921875 9.22265625 C-4.8531786 9.96785758 -6.71559076 9.99851065 -10 9 C-10.66 6.69 -11.32 4.38 -12 2 C-8.625 1.875 -8.625 1.875 -5 2 C-4.34 2.66 -3.68 3.32 -3 4 C-3 3.34 -3 2.68 -3 2 C-2.01 1.34 -1.02 0.68 0 0 Z M0 2 C-0.33 2.66 -0.66 3.32 -1 4 C-0.34 4 0.32 4 1 4 C0.67 3.34 0.34 2.68 0 2 Z " fill="#384E8A" transform="translate(41,113)"/>
<path d="M0 0 C1.88391785 3.26545761 2.49287967 6.28111761 3 10 C2.34 10 1.68 10 1 10 C1 9.34 1 8.68 1 8 C0.34 8 -0.32 8 -1 8 C-1 9.98 -1 11.96 -1 14 C-1.66 14 -2.32 14 -3 14 C-3 14.66 -3 15.32 -3 16 C-3.66 16 -4.32 16 -5 16 C-5.66 17.32 -6.32 18.64 -7 20 C-8.08792792 13.48554002 -8.64691272 8.71349659 -5 3 C-2.3125 2.0625 -2.3125 2.0625 0 2 C0 1.34 0 0.68 0 0 Z " fill="#243181" transform="translate(37,57)"/>
<path d="M0 0 C0 1.32 0 2.64 0 4 C-0.99 4 -1.98 4 -3 4 C-2.67 5.32 -2.34 6.64 -2 8 C-1.01 8 -0.02 8 1 8 C1 8.66 1 9.32 1 10 C3.31 10.33 5.62 10.66 8 11 C7.01 12.485 7.01 12.485 6 14 C-1.244298 11.86233829 -7.46718285 8.77315981 -14 5 C-13.67 4.01 -13.34 3.02 -13 2 C-10 3 -10 3 -9 4 C-8.67 3.34 -8.34 2.68 -8 2 C-2.77777778 0 -2.77777778 0 0 0 Z " fill="#6CB179" transform="translate(72,153)"/>
<path d="M0 0 C0.99 0 1.98 0 3 0 C3 0.66 3 1.32 3 2 C3.804375 1.773125 4.60875 1.54625 5.4375 1.3125 C10.15863018 0.89836577 13.64963732 2.28885735 18 4 C18.33 3.34 18.66 2.68 19 2 C19 3.32 19 4.64 19 6 C18.34 6 17.68 6 17 6 C17.33 6.66 17.66 7.32 18 8 C18.13415472 10.6723621 18.04318541 13.32250488 18 16 C17.4225 15.195625 16.845 14.39125 16.25 13.5625 C14.02671781 11.03042862 13.2796088 10.21864059 10 10 C9.01 10.495 9.01 10.495 8 11 C8.33 10.01 8.66 9.02 9 8 C9.66 8 10.32 8 11 8 C10.67 7.01 10.34 6.02 10 5 C6.7 4.34 3.4 3.68 0 3 C0 2.01 0 1.02 0 0 Z " fill="#29437C" transform="translate(155,35)"/>
<path d="M0 0 C-1.98 0.99 -1.98 0.99 -4 2 C-2.68 2.66 -1.36 3.32 0 4 C-0.639375 4.28875 -1.27875 4.5775 -1.9375 4.875 C-4.15206079 5.82823451 -4.15206079 5.82823451 -5 8 C-9.94877422 9.05390562 -15.11052208 9.46684337 -20 8 C-20 7.67 -20 7.34 -20 7 C-18.35 7 -16.7 7 -15 7 C-15 5.02 -15 3.04 -15 1 C-9.42567486 -0.66251802 -5.6932495 -1.18609365 0 0 Z " fill="#314389" transform="translate(135,13)"/>
<path d="M0 0 C1.2684375 0.13535156 1.2684375 0.13535156 2.5625 0.2734375 C4.76573235 0.5912114 6.85455972 1.03897696 9 1.625 C7.02 2.615 7.02 2.615 5 3.625 C6.32 4.285 7.64 4.945 9 5.625 C3.69235173 6.60272468 -1.63108121 7.12630596 -7 7.625 C-7.66 6.635 -8.32 5.645 -9 4.625 C-8.01 3.965 -7.02 3.305 -6 2.625 C-7.98 2.625 -9.96 2.625 -12 2.625 C-7.75443369 -0.20537754 -5.02158307 -0.56645907 0 0 Z " fill="#3D4F8A" transform="translate(53,121.375)"/>
<path d="M0 0 C3.125 0.375 3.125 0.375 6 1 C5.49452628 5.08055151 3.49911118 6.66272295 0.4375 9.25 C-0.38878906 9.95640625 -1.21507812 10.6628125 -2.06640625 11.390625 C-2.70449219 11.92171875 -3.34257813 12.4528125 -4 13 C-5.51953125 11.66796875 -5.51953125 11.66796875 -7 10 C-6.6875 7.3125 -6.6875 7.3125 -6 5 C-6.66 4.67 -7.32 4.34 -8 4 C-6.7934375 3.7834375 -6.7934375 3.7834375 -5.5625 3.5625 C-3.07896294 3.25864751 -3.07896294 3.25864751 -2 2 C-1.34 1.34 -0.68 0.68 0 0 Z " fill="#3B5387" transform="translate(131,73)"/>
<path d="M0 0 C0.33 0 0.66 0 1 0 C1 6.6 1 13.2 1 20 C-4.64342252 21.61240643 -8.14740123 22.27259262 -13.8125 22.25 C-15.11832031 22.25515625 -16.42414063 22.2603125 -17.76953125 22.265625 C-21 22 -21 22 -23 20 C-15.74 20 -8.48 20 -1 20 C-1.33 18.68 -1.66 17.36 -2 16 C-2.99 15.67 -3.98 15.34 -5 15 C-4.34 15 -3.68 15 -3 15 C-3 12.69 -3 10.38 -3 8 C-2.34 7.67 -1.68 7.34 -1 7 C-0.59270772 4.67843403 -0.25561323 2.3431213 0 0 Z " fill="#B1D9AE" transform="translate(142,82)"/>
<path d="M0 0 C5.28 0 10.56 0 16 0 C16 1.65 16 3.3 16 5 C18.64 5 21.28 5 24 5 C24 5.33 24 5.66 24 6 C22.58456585 6.19658808 21.16755969 6.38187546 19.75 6.5625 C18.96109375 6.66691406 18.1721875 6.77132813 17.359375 6.87890625 C14.99467126 7.00027349 13.2488963 6.69633257 11 6 C10.01 7.485 10.01 7.485 9 9 C6.03 8.505 6.03 8.505 3 8 C3.66 7.67 4.32 7.34 5 7 C5.33 6.01 5.66 5.02 6 4 C6.66 4 7.32 4 8 4 C8 3.34 8 2.68 8 2 C5.36 1.67 2.72 1.34 0 1 C0 0.67 0 0.34 0 0 Z " fill="#202A6C" transform="translate(88,12)"/>
<path d="M0 0 C-0.33 0.66 -0.66 1.32 -1 2 C-1.99 2.33 -2.98 2.66 -4 3 C-4.33 3.66 -4.66 4.32 -5 5 C-2.69 3.68 -0.38 2.36 2 1 C1.67 2.32 1.34 3.64 1 5 C0.34 5 -0.32 5 -1 5 C-1.33 5.66 -1.66 6.32 -2 7 C-2.99 7.33 -3.98 7.66 -5 8 C-5 9.65 -5 11.3 -5 13 C-4.34 13 -3.68 13 -3 13 C-3 13.66 -3 14.32 -3 15 C-3.99 14.67 -4.98 14.34 -6 14 C-6.33 13.34 -6.66 12.68 -7 12 C-8.32 12.33 -9.64 12.66 -11 13 C-10.63636364 5.84848485 -10.63636364 5.84848485 -7.75 2 C-4.78037154 -0.15972979 -3.57208216 -0.51029745 0 0 Z " fill="#242D7D" transform="translate(61,26)"/>
<path d="M0 0 C4.30178403 0.477976 6.09840957 2.96651909 9 6 C11.05574612 7.84185346 13.14020483 9.64671583 15.23046875 11.44921875 C16.52866688 12.58693322 17.7794033 13.7794033 19 15 C18.071875 14.979375 17.14375 14.95875 16.1875 14.9375 C12.97713989 14.84230396 12.97713989 14.84230396 10 16 C10 14.35 10 12.7 10 11 C9.01 11 8.02 11 7 11 C6.67 9.68 6.34 8.36 6 7 C5.01 7 4.02 7 3 7 C2.67 5.68 2.34 4.36 2 3 C1.34 3 0.68 3 0 3 C0 2.01 0 1.02 0 0 Z " fill="#A2D08B" transform="translate(158,170)"/>
<path d="M0 0 C0 1.32 0 2.64 0 4 C-1.75 5.484375 -1.75 5.484375 -4 6.75 C-5.11375 7.39195312 -5.11375 7.39195312 -6.25 8.046875 C-6.8275 8.36140625 -7.405 8.6759375 -8 9 C-8.66 8.34 -9.32 7.68 -10 7 C-9.67 6.34 -9.34 5.68 -9 5 C-10.98 5 -12.96 5 -15 5 C-15 3.68 -15 2.36 -15 1 C-13.948125 1.020625 -12.89625 1.04125 -11.8125 1.0625 C-7.76871947 0.99620852 -4.01564529 0 0 0 Z " fill="#9BCA7F" transform="translate(199,186)"/>
<path d="M0 0 C3.63 0 7.26 0 11 0 C11.33 1.98 11.66 3.96 12 6 C10.02 7.32 8.04 8.64 6 10 C5.67 8.68 5.34 7.36 5 6 C4.34 6.66 3.68 7.32 3 8 C3 7.34 3 6.68 3 6 C2.34 6 1.68 6 1 6 C0.67 4.02 0.34 2.04 0 0 Z " fill="#222C75" transform="translate(69,21)"/>
<path d="M0 0 C0.66 0.99 1.32 1.98 2 3 C1.69728039 4.34061543 1.36162029 5.67405895 1 7 C1.37907282 9.18703385 1.37907282 9.18703385 2 11 C2.66 11 3.32 11 4 11 C4.625 12.875 4.625 12.875 5 15 C4.34 15.66 3.68 16.32 3 17 C1.68 17 0.36 17 -1 17 C-1 16.01 -1 15.02 -1 14 C-1.66 14 -2.32 14 -3 14 C-3.34615998 8.34605369 -2.43425238 4.96993194 0 0 Z " fill="#20347F" transform="translate(12,110)"/>
<path d="M0 0 C0.99 0 1.98 0 3 0 C3.33 0.66 3.66 1.32 4 2 C4.66 2 5.32 2 6 2 C6 2.66 6 3.32 6 4 C5.34 4 4.68 4 4 4 C4.33 4.99 4.66 5.98 5 7 C4.34 7.66 3.68 8.32 3 9 C4.98 8.67 6.96 8.34 9 8 C9.33 9.32 9.66 10.64 10 12 C9.21625 11.979375 8.4325 11.95875 7.625 11.9375 C5.01885039 11.81315937 5.01885039 11.81315937 3 13 C3 12.34 3 11.68 3 11 C1.68 11.33 0.36 11.66 -1 12 C-2.19589041 7.21643835 -1.52717961 4.58153882 0 0 Z " fill="#274489" transform="translate(100,73)"/>
<path d="M0 0 C0 3.93235469 -1.54945341 5.02964049 -4 8 C-4.33 8.99 -4.66 9.98 -5 11 C-6.98 11.33 -8.96 11.66 -11 12 C-11.33 13.32 -11.66 14.64 -12 16 C-13.32 15.34 -14.64 14.68 -16 14 C-13.90185329 11.84797791 -11.79697945 9.70336384 -9.6875 7.5625 C-8.79514648 6.64500977 -8.79514648 6.64500977 -7.88476562 5.70898438 C-7.01948242 4.8340332 -7.01948242 4.8340332 -6.13671875 3.94140625 C-5.60780029 3.40201416 -5.07888184 2.86262207 -4.53393555 2.30688477 C-3 1 -3 1 0 0 Z " fill="#2E477B" transform="translate(151,53)"/>
<path d="M0 0 C0 0.99 0 1.98 0 3 C-2.31 3.33 -4.62 3.66 -7 4 C-7 4.99 -7 5.98 -7 7 C-7.78375 7.0825 -8.5675 7.165 -9.375 7.25 C-12.14749104 7.72806339 -12.14749104 7.72806339 -13.3125 10.0625 C-13.539375 10.701875 -13.76625 11.34125 -14 12 C-14.66 12 -15.32 12 -16 12 C-16 8.88742431 -15.82638376 6.89234315 -15 4 C-14.34 4 -13.68 4 -13 4 C-13 3.34 -13 2.68 -13 2 C-12.34 2 -11.68 2 -11 2 C-11 2.66 -11 3.32 -11 4 C-10.01 3.34 -9.02 2.68 -8 2 C-8 1.34 -8 0.68 -8 0 C-4.71303767 -0.79953138 -3.28976808 -1.09658936 0 0 Z " fill="#29417E" transform="translate(158,27)"/>
<path d="M0 0 C0.33 0 0.66 0 1 0 C1.33 5.28 1.66 10.56 2 16 C0.02 16.66 -1.96 17.32 -4 18 C-4.31747608 11.96795445 -3.65250454 8.41110927 -1 3 C-0.67 2.01 -0.34 1.02 0 0 Z " fill="#435C8E" transform="translate(60,98)"/>
<path d="M0 0 C2.64 0 5.28 0 8 0 C8 0.99 8 1.98 8 3 C7.34 3 6.68 3 6 3 C6.020625 3.94875 6.04125 4.8975 6.0625 5.875 C6 9 6 9 5 11 C3.35 11 1.7 11 0 11 C-0.33 10.01 -0.66 9.02 -1 8 C-0.01 7.67 0.98 7.34 2 7 C1.67 6.401875 1.34 5.80375 1 5.1875 C0 3 0 3 0 0 Z " fill="#5EA970" transform="translate(98,134)"/>
<path d="M0 0 C0.33 0 0.66 0 1 0 C1 4.95 1 9.9 1 15 C2.32 15.33 3.64 15.66 5 16 C5.66 16.66 6.32 17.32 7 18 C6.625 20.125 6.625 20.125 6 22 C4.35 22.33 2.7 22.66 1 23 C-1.55975195 18.2029076 -1.03828449 13.92381452 -0.625 8.6875 C-0.56828125 7.85154297 -0.5115625 7.01558594 -0.453125 6.15429688 C-0.31240504 4.10213072 -0.1576007 2.05093882 0 0 Z " fill="#304579" transform="translate(75,82)"/>
<path d="M0 0 C0.66 0 1.32 0 2 0 C4.10575375 5.52760359 5.37851209 10.06997733 5 16 C4.34 16.33 3.68 16.66 3 17 C3 16.34 3 15.68 3 15 C2.01 14.67 1.02 14.34 0 14 C0 9.38 0 4.76 0 0 Z " fill="#659C84" transform="translate(184,64)"/>
<path d="M0 0 C0.66 0.66 1.32 1.32 2 2 C-0.97 4.97 -3.94 7.94 -7 11 C-7.99 10.67 -8.98 10.34 -10 10 C-10.875 8.125 -10.875 8.125 -11 6 C-8.7647124 2.36765765 -4.90182389 2.01158397 -1 1 C-0.67 0.67 -0.34 0.34 0 0 Z " fill="#2F4C88" transform="translate(150,61)"/>
<path d="M0 0 C0 0.66 0 1.32 0 2 C-0.66 2 -1.32 2 -2 2 C-2 2.66 -2 3.32 -2 4 C-1.34 4 -0.68 4 0 4 C0 4.66 0 5.32 0 6 C-3.3 6 -6.6 6 -10 6 C-10 5.34 -10 4.68 -10 4 C-10.99 4 -11.98 4 -13 4 C-13 4.66 -13 5.32 -13 6 C-13.66 6 -14.32 6 -15 6 C-13.85192149 2.55576447 -13.40141128 2.32681566 -10.3125 0.75 C-6.53251302 -1.04804786 -4.09254379 -1.22776314 0 0 Z " fill="#3F5487" transform="translate(168,31)"/>
<path d="M0 0 C0.66 0.33 1.32 0.66 2 1 C1.835 2.0725 1.67 3.145 1.5 4.25 C0.91189085 8.03028752 0.91189085 8.03028752 1 12 C0.34 12 -0.32 12 -1 12 C-1 11.34 -1 10.68 -1 10 C-2.32 10 -3.64 10 -5 10 C-5.66 8.68 -6.32 7.36 -7 6 C-6.34 6 -5.68 6 -5 6 C-5 4.68 -5 3.36 -5 2 C-3.35 2 -1.7 2 0 2 C0 1.34 0 0.68 0 0 Z " fill="#273C80" transform="translate(135,15)"/>
<path d="M0 0 C2.375 1.5 2.375 1.5 4 3 C1.03 2.505 1.03 2.505 -2 2 C-2.99 3.98 -3.98 5.96 -5 8 C-7.9375 7.25 -7.9375 7.25 -11 6 C-11.875 3.875 -11.875 3.875 -12 2 C-7.84551063 0.41733738 -4.45237986 -0.48395433 0 0 Z " fill="#5A967D" transform="translate(52,134)"/>
<path d="M0 0 C1.2065625 0.0309375 1.2065625 0.0309375 2.4375 0.0625 C2.7675 1.3825 3.0975 2.7025 3.4375 4.0625 C2.40625 4.165625 1.375 4.26875 0.3125 4.375 C-3.55202934 4.85600036 -3.55202934 4.85600036 -6.625 6.6875 C-10.12365843 8.3251699 -11.88872461 8.02467927 -15.5625 7.0625 C-13.28555284 4.78555284 -11.49411848 4.13302613 -8.5 3 C-0.65120968 0.01588316 -0.65120968 0.01588316 0 0 Z " fill="#6B9E84" transform="translate(65.5625,126.9375)"/>
<path d="M0 0 C1.17949219 0.11085938 2.35898438 0.22171875 3.57421875 0.3359375 C4.47785156 0.43132812 5.38148438 0.52671875 6.3125 0.625 C6.3125 0.955 6.3125 1.285 6.3125 1.625 C3.0125 1.955 -0.2875 2.285 -3.6875 2.625 C-3.3575 2.955 -3.0275 3.285 -2.6875 3.625 C-2.64657063 5.95797433 -2.64508277 8.29205225 -2.6875 10.625 C-4.0075 10.955 -5.3275 11.285 -6.6875 11.625 C-6.6875 9.645 -6.6875 7.665 -6.6875 5.625 C-8.0075 5.295 -9.3275 4.965 -10.6875 4.625 C-8.75824705 -1.16275885 -5.32734259 -0.52745966 0 0 Z " fill="#6BB965" transform="translate(123.6875,99.375)"/>
<path d="M0 0 C0 2.6506582 -0.36825703 4.47302813 -1 7 C-1 7.99 -1 8.98 -1 10 C-1.66 10 -2.32 10 -3 10 C-2.34 10.66 -1.68 11.32 -1 12 C-1.375 14.125 -1.375 14.125 -2 16 C-4.31 16.33 -6.62 16.66 -9 17 C-7.7508258 13.54074837 -6.32472205 10.85306797 -4 8 C-4.99 7.67 -5.98 7.34 -7 7 C-6.34 7 -5.68 7 -5 7 C-4.731875 6.401875 -4.46375 5.80375 -4.1875 5.1875 C-3.01506533 3.02775192 -1.80630718 1.64209744 0 0 Z " fill="#35508C" transform="translate(155,46)"/>
<path d="M0 0 C0.66 0 1.32 0 2 0 C1.1875 1.9375 1.1875 1.9375 0 4 C-0.99 4.33 -1.98 4.66 -3 5 C-4.315213 7.14587384 -5 8.47013105 -5 11 C-4.67 11.66 -4.34 12.32 -4 13 C-4.6875 15.5625 -4.6875 15.5625 -6 18 C-8.125 18.8125 -8.125 18.8125 -10 19 C-10 18.01 -10 17.02 -10 16 C-9.34 16 -8.68 16 -8 16 C-8.28875 15.175 -8.5775 14.35 -8.875 13.5 C-9.03994435 8.88155827 -7.38338086 7.09399364 -4.640625 3.5390625 C-3 2 -3 2 0 2 C0 1.34 0 0.68 0 0 Z " fill="#304781" transform="translate(162,40)"/>
<path d="M0 0 C2.31 0 4.62 0 7 0 C7.66 1.32 8.32 2.64 9 4 C10.32 4 11.64 4 13 4 C13 4.66 13 5.32 13 6 C13.66 6 14.32 6 15 6 C15 6.66 15 7.32 15 8 C16.32 8.66 17.64 9.32 19 10 C19 11.32 19 12.64 19 14 C17.576875 12.700625 17.576875 12.700625 16.125 11.375 C12.40194075 8.16205316 8.40116022 5.72623522 4.13671875 3.296875 C2 2 2 2 0 0 Z " fill="#2C3D72" transform="translate(121,21)"/>
<path d="M0 0 C0.66 0.33 1.32 0.66 2 1 C2 4.96 2 8.92 2 13 C1.34 11.68 0.68 10.36 0 9 C-0.99 9 -1.98 9 -3 9 C-3 8.34 -3 7.68 -3 7 C-3.99 7.33 -4.98 7.66 -6 8 C-5.65120368 4.74456771 -4.97866739 3.98126893 -2.4375 1.75 C-1.633125 1.1725 -0.82875 0.595 0 0 Z " fill="#6EB06D" transform="translate(140,78)"/>
<path d="M0 0 C-1.15173355 2.46800047 -2.04783565 4.04783565 -4 6 C-4 6.99 -4 7.98 -4 9 C-6.97 8.505 -6.97 8.505 -10 8 C-10 7.01 -10 6.02 -10 5 C-10.99 4.67 -11.98 4.34 -13 4 C-9.15902469 0.46630272 -5.10845088 0 0 0 Z " fill="#3F5890" transform="translate(118,87)"/>
<path d="M0 0 C1.36125 0.12375 1.36125 0.12375 2.75 0.25 C2.75 1.57 2.75 2.89 2.75 4.25 C4.07 4.25 5.39 4.25 6.75 4.25 C6.42 5.24 6.09 6.23 5.75 7.25 C1.03596212 6.77060632 -2.91579301 6.28165952 -7.25 4.25 C-4.83923194 1.28290085 -3.90322061 0.30024774 0 0 Z " fill="#9BCE7C" transform="translate(161.25,190.75)"/>
<path d="M0 0 C0.66 0.33 1.32 0.66 2 1 C-0.64 6.28 -3.28 11.56 -6 17 C-6.66 17 -7.32 17 -8 17 C-8.125 10.25 -8.125 10.25 -7 8 C-6.01 8 -5.02 8 -4 8 C-4 6.02 -4 4.04 -4 2 C-3.67 2.66 -3.34 3.32 -3 4 C-2.34 4 -1.68 4 -1 4 C-0.67 2.68 -0.34 1.36 0 0 Z " fill="#8FBE86" transform="translate(184,121)"/>
<path d="M0 0 C0.3449145 1.33038449 0.67516582 2.66457061 1 4 C1.226875 4.86625 1.45375 5.7325 1.6875 6.625 C1.790625 7.40875 1.89375 8.1925 2 9 C1.34 9.66 0.68 10.32 0 11 C-0.44730469 10.4225 -0.89460937 9.845 -1.35546875 9.25 C-1.96003906 8.5075 -2.56460938 7.765 -3.1875 7 C-4.07501953 5.88625 -4.07501953 5.88625 -4.98046875 4.75 C-6.90280499 2.74037879 -6.90280499 2.74037879 -9.73828125 2.75 C-10.85783203 2.87375 -10.85783203 2.87375 -12 3 C-11.67 2.34 -11.34 1.68 -11 1 C-7.29882394 0.15882362 -3.78728969 -0.11139087 0 0 Z " fill="#90C47E" transform="translate(135,169)"/>
<path d="M0 0 C1.41791408 0.45445964 2.83428046 0.91374944 4.25 1.375 C5.43335937 1.75785156 5.43335937 1.75785156 6.640625 2.1484375 C8.86627958 2.95173667 10.90931672 3.89711662 13 5 C12.67 5.66 12.34 6.32 12 7 C10.02 7 8.04 7 6 7 C6 6.34 6 5.68 6 5 C3.69 5 1.38 5 -1 5 C-1.33 4.34 -1.66 3.68 -2 3 C-1.34 3 -0.68 3 0 3 C0 2.01 0 1.02 0 0 Z M-4 5 C-1.875 5.375 -1.875 5.375 0 6 C0 6.33 0 6.66 0 7 C-1.98 7 -3.96 7 -6 7 C-5.34 6.34 -4.68 5.68 -4 5 Z " fill="#86BC83" transform="translate(88,156)"/>
<path d="M0 0 C0.33 0.66 0.66 1.32 1 2 C3.31 2 5.62 2 8 2 C7.67 2.66 7.34 3.32 7 4 C7.66 4.66 8.32 5.32 9 6 C5.52674819 7.1577506 2.63932552 7.06866652 -1 7 C-1 6.34 -1 5.68 -1 5 C-2.98 5.33 -4.96 5.66 -7 6 C-7 5.34 -7 4.68 -7 4 C-5.68 4 -4.36 4 -3 4 C-3 3.34 -3 2.68 -3 2 C-2.01 1.34 -1.02 0.68 0 0 Z M0 2 C-0.33 2.66 -0.66 3.32 -1 4 C-0.34 4 0.32 4 1 4 C0.67 3.34 0.34 2.68 0 2 Z " fill="#2A4B8D" transform="translate(41,113)"/>
<path d="M0 0 C5.1358421 1.87655769 7.84442256 3.32974539 11 8 C9.35 8.33 7.7 8.66 6 9 C6 8.34 6 7.68 6 7 C4.7934375 7.2784375 4.7934375 7.2784375 3.5625 7.5625 C2.716875 7.706875 1.87125 7.85125 1 8 C0 7 0 7 -0.0625 3.4375 C-0.041875 2.303125 -0.02125 1.16875 0 0 Z " fill="#6AB176" transform="translate(72,144)"/>
<path d="M0 0 C0.99 0.66 1.98 1.32 3 2 C2.38277048 4.93933089 1.75659529 7.87625379 1.125 10.8125 C0.86396484 12.06256836 0.86396484 12.06256836 0.59765625 13.33789062 C0.42363281 14.14033203 0.24960938 14.94277344 0.0703125 15.76953125 C-0.16534424 16.87711792 -0.16534424 16.87711792 -0.40576172 18.00708008 C-1 20 -1 20 -3 23 C-3.33 20.36 -3.66 17.72 -4 15 C-3.34 15 -2.68 15 -2 15 C-2.04125 14.195625 -2.0825 13.39125 -2.125 12.5625 C-1.9720219 8.20262407 -1.05024765 4.21974503 0 0 Z " fill="#485A87" transform="translate(176,26)"/>
<path d="M0 0 C0.33 1.98 0.66 3.96 1 6 C-2.875 5.125 -2.875 5.125 -4 4 C-4.66 4.66 -5.32 5.32 -6 6 C-7.98356483 6.71408334 -9.98315437 7.38617742 -12 8 C-12.33 7.01 -12.66 6.02 -13 5 C-4.738041 -0.74031891 -4.738041 -0.74031891 0 0 Z " fill="#2F457B" transform="translate(96,100)"/>
<path d="M0 0 C0.33 0 0.66 0 1 0 C2.6797917 8.60719716 3.16036815 16.2972389 2 25 C1.67 25 1.34 25 1 25 C-0.12463795 20.30130078 -0.3641754 15.61857689 -0.625 10.8125 C-0.6765625 9.99330078 -0.728125 9.17410156 -0.78125 8.33007812 C-1.1218831 2.24376619 -1.1218831 2.24376619 0 0 Z " fill="#425088" transform="translate(27,86)"/>
<path d="M0 0 C0.66 0.33 1.32 0.66 2 1 C2 1.66 2 2.32 2 3 C-0.90548882 5.04169485 -2.40142046 6 -6 6 C-6.33 6.66 -6.66 7.32 -7 8 C-9.475 7.01 -9.475 7.01 -12 6 C-12 6.66 -12 7.32 -12 8 C-13.65 7.67 -15.3 7.34 -17 7 C-14.40046573 4.86466828 -12.37441946 3.43540896 -9 3 C-8.01 3.33 -7.02 3.66 -6 4 C-2.81711646 2.12821884 -2.81711646 2.12821884 0 0 Z " fill="#2D4889" transform="translate(92,103)"/>
<path d="M0 0 C0.66 0.99 1.32 1.98 2 3 C1.1025444 6.06630664 0.26961192 7.73038808 -2 10 C-2.99 10 -3.98 10 -5 10 C-5.6875 7.75 -5.6875 7.75 -6 5 C-4.26635169 1.87943304 -3.44004627 1.14668209 0 0 Z " fill="#1E2771" transform="translate(47,37)"/>
<path d="M0 0 C0.33 1.32 0.66 2.64 1 4 C3.64 4.33 6.28 4.66 9 5 C9 4.34 9 3.68 9 3 C9.66 3.33 10.32 3.66 11 4 C11 4.66 11 5.32 11 6 C2.585 6.495 2.585 6.495 -6 7 C-4.11656068 3.23312136 -3.30867531 2.20578354 0 0 Z " fill="#76AE88" transform="translate(87,138)"/>
<path d="M0 0 C0.33 2.64 0.66 5.28 1 8 C-0.98 8.99 -0.98 8.99 -3 10 C-3 7 -3 7 -2 5 C-2.78375 5.495 -3.5675 5.99 -4.375 6.5 C-7 8 -7 8 -9 8 C-9 7.01 -9 6.02 -9 5 C-3.76744186 0 -3.76744186 0 0 0 Z " fill="#2B4675" transform="translate(125,78)"/>
<path d="M0 0 C-1.32 0.33 -2.64 0.66 -4 1 C-4 1.66 -4 2.32 -4 3 C-5.60032137 3.84069415 -7.20541171 4.67231505 -8.8125 5.5 C-10.15248047 6.19609375 -10.15248047 6.19609375 -11.51953125 6.90625 C-14 8 -14 8 -17 8 C-17 7.01 -17 6.02 -17 5 C-15.29870914 4.15238178 -13.58856916 3.3225132 -11.875 2.5 C-10.92367187 2.0359375 -9.97234375 1.571875 -8.9921875 1.09375 C-5.78803369 -0.07748116 -3.38282687 -0.20076124 0 0 Z " fill="#2C3271" transform="translate(80,16)"/>
<path d="M0 0 C3.36591866 1.44253657 5.51047079 3.33264727 8 6 C7 9 7 9 5 10 C5 8.68 5 7.36 5 6 C3.88625 6.020625 2.7725 6.04125 1.625 6.0625 C-2 6 -2 6 -4 5 C-4 4.34 -4 3.68 -4 3 C-3.01 3 -2.02 3 -1 3 C-0.67 2.01 -0.34 1.02 0 0 Z " fill="#85C16E" transform="translate(152,163)"/>
<path d="M0 0 C1.916588 -0.02712153 3.8332873 -0.04645097 5.75 -0.0625 C7.35101563 -0.07990234 7.35101563 -0.07990234 8.984375 -0.09765625 C11.53368501 -0.01510087 13.57933591 0.25382442 16 1 C16 1.99 16 2.98 16 4 C7.42857143 4.14285714 7.42857143 4.14285714 4 3 C4 2.34 4 1.68 4 1 C2.68 0.67 1.36 0.34 0 0 Z " fill="#76B570" transform="translate(96,161)"/>
<path d="M0 0 C0.99 0 1.98 0 3 0 C3.86627399 1.59766103 4.71766465 3.20339944 5.5625 4.8125 C6.27599609 6.15248047 6.27599609 6.15248047 7.00390625 7.51953125 C8 10 8 10 7 13 C6.360625 12.505 5.72125 12.01 5.0625 11.5 C3.29025661 9.90197138 3.29025661 9.90197138 2 10 C0.68373308 6.38026598 0 3.90432869 0 0 Z " fill="#3C6B7C" transform="translate(176,49)"/>
<path d="M0 0 C5.43806647 -0.36253776 5.43806647 -0.36253776 7.9375 1.25 C9 3 9 3 8.8515625 5 C8 7 8 7 5.93359375 8.046875 C5.10988281 8.27890625 4.28617188 8.5109375 3.4375 8.75 C2.19806641 9.11351562 2.19806641 9.11351562 0.93359375 9.484375 C-0.02353516 9.73960938 -0.02353516 9.73960938 -1 10 C-1 9.01 -1 8.02 -1 7 C2.465 6.505 2.465 6.505 6 6 C5.67 5.01 5.34 4.02 5 3 C2.69 3 0.38 3 -2 3 C-1.34 2.67 -0.68 2.34 0 2 C0 1.34 0 0.68 0 0 Z " fill="#4C5E95" transform="translate(152,24)"/>
<path d="M0 0 C0 0.66 0 1.32 0 2 C-5.49906133 4.29960746 -10.95025072 6.25058133 -17 6 C-17.99 5.34 -18.98 4.68 -20 4 C-17.41806023 3.32749476 -14.83467929 2.66182099 -12.25 2 C-11.15558594 1.71382812 -11.15558594 1.71382812 -10.0390625 1.421875 C-6.55428354 0.53484036 -3.61876278 0 0 0 Z " fill="#334577" transform="translate(56,127)"/>
<path d="M0 0 C0.33 4.29 0.66 8.58 1 13 C-0.32 13 -1.64 13 -3 13 C-3 9.04 -3 5.08 -3 1 C-1 0 -1 0 0 0 Z " fill="#6DAA68" transform="translate(99,111)"/>
<path d="M0 0 C0.89203125 0.20367187 1.7840625 0.40734375 2.703125 0.6171875 C3.37859375 0.78476563 4.0540625 0.95234375 4.75 1.125 C4.75 1.785 4.75 2.445 4.75 3.125 C3 4.8125 3 4.8125 0.75 6.125 C-1.5 5.8125 -1.5 5.8125 -3.25 5.125 C-3.25 3.805 -3.25 2.485 -3.25 1.125 C-5.23 1.125 -7.21 1.125 -9.25 1.125 C-5.82794357 -1.03377391 -3.8855015 -0.92025036 0 0 Z " fill="#2D387F" transform="translate(91.25,12.875)"/>
<path d="M0 0 C0 2.64 0 5.28 0 8 C-1.12588014 7.04270084 -2.2506715 6.08412105 -3.375 5.125 C-4.00148438 4.59132812 -4.62796875 4.05765625 -5.2734375 3.5078125 C-6.55836651 2.38567993 -7.79371975 1.20628025 -9 0 C-5.93109813 -1.53445094 -3.29905734 -0.54984289 0 0 Z " fill="#85B98D" transform="translate(115,148)"/>
<path d="M0 0 C0.33 0 0.66 0 1 0 C2.59456558 6.17894161 2.59456558 12.82105839 1 19 C0.67 19 0.34 19 0 19 C-1.29479052 12.84974502 -2.0095763 6.02872891 0 0 Z " fill="#232F76" transform="translate(28,73)"/>
<path d="M0 0 C2.76262553 0.3810518 3.84143894 0.83597132 5.8125 2.875 C6.204375 3.57625 6.59625 4.2775 7 5 C6.67 5.99 6.34 6.98 6 8 C5.38125 7.01 5.38125 7.01 4.75 6 C4.1725 5.34 3.595 4.68 3 4 C1.68 4 0.36 4 -1 4 C-1.66 5.32 -2.32 6.64 -3 8 C-3.66 8 -4.32 8 -5 8 C-4.34 6.35 -3.68 4.7 -3 3 C-2.34 3 -1.68 3 -1 3 C-0.67 2.01 -0.34 1.02 0 0 Z " fill="#445A89" transform="translate(165,44)"/>
<path d="M0 0 C1.20076172 0.06960937 1.20076172 0.06960937 2.42578125 0.140625 C3.23402344 0.17671875 4.04226562 0.2128125 4.875 0.25 C5.79732422 0.31960937 5.79732422 0.31960937 6.73828125 0.390625 C6.40828125 1.050625 6.07828125 1.710625 5.73828125 2.390625 C6.39828125 3.050625 7.05828125 3.710625 7.73828125 4.390625 C3.44828125 4.390625 -0.84171875 4.390625 -5.26171875 4.390625 C-2.26171875 0.390625 -2.26171875 0.390625 0 0 Z " fill="#90CD6F" transform="translate(170.26171875,190.609375)"/>
<path d="M0 0 C-0.66 0.66 -1.32 1.32 -2 2 C-3.32 2 -4.64 2 -6 2 C-6 2.66 -6 3.32 -6 4 C-11.75 7 -11.75 7 -14 7 C-14 6.01 -14 5.02 -14 4 C-12.42466914 3.13116294 -10.83935491 2.28040932 -9.25 1.4375 C-8.36828125 0.96183594 -7.4865625 0.48617187 -6.578125 -0.00390625 C-3.79298812 -1.07998186 -2.73019786 -1.06528748 0 0 Z " fill="#1F326E" transform="translate(78,111)"/>
<path d="M0 0 C3.04261908 0.3259949 3.9801219 0.97895261 6.125 3.25 C7.8640616 5.80062367 9.00276322 8.09139271 10 11 C9.01 11 8.02 11 7 11 C6.67 9.68 6.34 8.36 6 7 C5.01 7 4.02 7 3 7 C2.67 5.68 2.34 4.36 2 3 C1.34 3 0.68 3 0 3 C0 2.01 0 1.02 0 0 Z " fill="#96C681" transform="translate(158,170)"/>
<path d="M0 0 C-0.33 1.65 -0.66 3.3 -1 5 C-4 4 -7 3 -10 2 C-9.34 1.34 -8.68 0.68 -8 0 C-8 -0.33 -8 -0.66 -8 -1 C-3.375 -2.25 -3.375 -2.25 0 0 Z " fill="#549B6F" transform="translate(70,132)"/>
<path d="M0 0 C1.61189613 4.02974033 0.22409257 6.98769658 -1 11 C-1.36950465 13.32787927 -1.71352467 15.66045145 -2 18 C-2.33 18 -2.66 18 -3 18 C-4.11310028 11.33480917 -4.30996336 6.98339531 -1 1 C-0.67 0.67 -0.34 0.34 0 0 Z " fill="#1F296D" transform="translate(33,59)"/>
<path d="M0 0 C0.66 0 1.32 0 2 0 C2 0.66 2 1.32 2 2 C3.65 1.67 5.3 1.34 7 1 C7 2.32 7 3.64 7 5 C7.33 5.99 7.66 6.98 8 8 C5.2980567 7.63487253 3.41609148 7.30130763 1.1875 5.6875 C0 4 0 4 0 0 Z " fill="#539572" transform="translate(48,145)"/>
<path d="M0 0 C0.91523438 0.0721875 1.83046875 0.144375 2.7734375 0.21875 C3.96195313 0.3115625 5.15046875 0.404375 6.375 0.5 C8.15003906 0.63921875 8.15003906 0.63921875 9.9609375 0.78125 C11.63786843 0.90195454 13.31873056 1 15 1 C14.67 1.99 14.34 2.98 14 4 C12.41676312 4.027193 10.83338938 4.04648306 9.25 4.0625 C7.92742188 4.07990234 7.92742188 4.07990234 6.578125 4.09765625 C4.2181162 4.00826198 2.25501476 3.66912821 0 3 C0 2.01 0 1.02 0 0 Z " fill="#515F91" transform="translate(22,123)"/>
<path d="M0 0 C0.66 0 1.32 0 2 0 C2 0.99 2 1.98 2 3 C2.99 3 3.98 3 5 3 C6.9249647 4.82193842 8.37535531 6.89235283 10 9 C9.01 9.33 8.02 9.66 7 10 C2.6477456 7.34618634 1.2228945 4.89157798 0 0 Z " fill="#505D8A" transform="translate(9,124)"/>
<path d="M0 0 C1.65 0.33 3.3 0.66 5 1 C4.67 1.99 4.34 2.98 4 4 C2.8553125 3.9071875 2.8553125 3.9071875 1.6875 3.8125 C-1.04525312 3.74101915 -1.04525312 3.74101915 -2.8125 5.5 C-3.4003125 6.2425 -3.4003125 6.2425 -4 7 C-4.99 6.67 -5.98 6.34 -7 6 C-4.82575883 3.49962266 -3.26954202 2.56371414 0 2 C0 1.34 0 0.68 0 0 Z " fill="#2B4590" transform="translate(80,109)"/>
<path d="M0 0 C1.58294782 -0.05437607 3.16644256 -0.09296271 4.75 -0.125 C5.63171875 -0.14820313 6.5134375 -0.17140625 7.421875 -0.1953125 C10.15398487 0.01166552 11.70810179 0.52663686 14 2 C15.25 4.125 15.25 4.125 16 6 C14.68 5.67 13.36 5.34 12 5 C12 4.34 12 3.68 12 3 C6.06 2.01 6.06 2.01 0 1 C0 0.67 0 0.34 0 0 Z " fill="#233270" transform="translate(128,14)"/>
<path d="M0 0 C1.32 0.33 2.64 0.66 4 1 C3.34 1 2.68 1 2 1 C2 1.66 2 2.32 2 3 C2.66 3.33 3.32 3.66 4 4 C3.01 4.495 3.01 4.495 2 5 C2.66 5.66 3.32 6.32 4 7 C3.01 7.33 2.02 7.66 1 8 C0.67 7.67 0.34 7.34 0 7 C-0.66 7.66 -1.32 8.32 -2 9 C-2.6875 7.3125 -2.6875 7.3125 -3 5 C-1.5625 2.25 -1.5625 2.25 0 0 Z " fill="#596D9C" transform="translate(146,34)"/>
<path d="M0 0 C3.24271506 0.5590888 4.93057424 1.4132178 7 4 C7 4.66 7 5.32 7 6 C4.36 5.67 1.72 5.34 -1 5 C-0.67 3.35 -0.34 1.7 0 0 Z " fill="#55A06B" transform="translate(89,137)"/>
<path d="M0 0 C0 3.93235469 -1.54945341 5.02964049 -4 8 C-4.33 8.99 -4.66 9.98 -5 11 C-6.98 11.33 -8.96 11.66 -11 12 C-10.29875 11.319375 -9.5975 10.63875 -8.875 9.9375 C-5.72065663 6.79219487 -2.86065696 3.4111614 0 0 Z " fill="#213B78" transform="translate(151,53)"/>
<path d="M0 0 C0.66 1.32 1.32 2.64 2 4 C0.35 5.65 -1.3 7.3 -3 9 C-3 8.34 -3 7.68 -3 7 C-3.99 7.33 -4.98 7.66 -6 8 C-6 7.34 -6 6.68 -6 6 C-5.34 6 -4.68 6 -4 6 C-3.67 4.68 -3.34 3.36 -3 2 C-2.01 2 -1.02 2 0 2 C0 1.34 0 0.68 0 0 Z " fill="#92C085" transform="translate(174,137)"/>
<path d="M0 0 C0 0.66 0 1.32 0 2 C1.32 2.33 2.64 2.66 4 3 C-4.03571429 5.27678571 -4.03571429 5.27678571 -8 4 C-7.34 3.67 -6.68 3.34 -6 3 C-6 2.34 -6 1.68 -6 1 C-3.92446352 0.4465236 -2.15634036 0 0 0 Z " fill="#52699C" transform="translate(40,118)"/>
<path d="M0 0 C1.485 0.99 1.485 0.99 3 2 C2.34 2 1.68 2 1 2 C1 3.98 1 5.96 1 8 C1.66 8 2.32 8 3 8 C3 8.99 3 9.98 3 11 C1.68 10.67 0.36 10.34 -1 10 C-1.125 2.25 -1.125 2.25 0 0 Z " fill="#71B965" transform="translate(101,111)"/>
<path d="M0 0 C0.66 0 1.32 0 2 0 C3.60355101 3.50776784 4.22036864 6.14354879 4 10 C3.01 10.33 2.02 10.66 1 11 C0.67 7.37 0.34 3.74 0 0 Z " fill="#609184" transform="translate(155,76)"/>
<path d="M0 0 C-0.33 1.32 -0.66 2.64 -1 4 C-2.32 4 -3.64 4 -5 4 C-5 4.66 -5 5.32 -5 6 C-6.32 5.67 -7.64 5.34 -9 5 C-9 4.34 -9 3.68 -9 3 C-3.375 0 -3.375 0 0 0 Z " fill="#223C75" transform="translate(179,24)"/>
<path d="M0 0 C0.99 1.32 1.98 2.64 3 4 C0.36 4.66 -2.28 5.32 -5 6 C-5 5.01 -5 4.02 -5 3 C-6.32 2.67 -7.64 2.34 -9 2 C-6.03 2 -3.06 2 0 2 C0 1.34 0 0.68 0 0 Z " fill="#82B97F" transform="translate(117,159)"/>
<path d="M0 0 C4 0 4 0 6 1 C6.33 1.66 6.66 2.32 7 3 C3.5980513 5.09350689 0.94727588 5.17942163 -3 5 C-2.505 4.54625 -2.01 4.0925 -1.5 3.625 C0.22609337 2.12364481 0.22609337 2.12364481 0 0 Z " fill="#253770" transform="translate(69,117)"/>
<path d="M0 0 C1.32 0 2.64 0 4 0 C5 2 5 2 4.3125 4.5625 C3 7 3 7 0.875 7.8125 C0.25625 7.874375 -0.3625 7.93625 -1 8 C-1 7.01 -1 6.02 -1 5 C-0.34 5 0.32 5 1 5 C0.67 3.35 0.34 1.7 0 0 Z " fill="#25427C" transform="translate(153,51)"/>
<path d="M0 0 C0.721875 0.103125 1.44375 0.20625 2.1875 0.3125 C1.8575 0.9725 1.5275 1.6325 1.1875 2.3125 C0.1975 2.6425 -0.7925 2.9725 -1.8125 3.3125 C-3.51836575 4.93902316 -5.1902546 6.60256566 -6.8125 8.3125 C-7.1425 7.3225 -7.4725 6.3325 -7.8125 5.3125 C-3.50480769 0.38942308 -3.50480769 0.38942308 0 0 Z " fill="#1A2269" transform="translate(58.8125,25.6875)"/>
<path d="M0 0 C3.3 0.33 6.6 0.66 10 1 C9.67 1.99 9.34 2.98 9 4 C6.69 3.67 4.38 3.34 2 3 C2 2.34 2 1.68 2 1 C1.34 0.67 0.68 0.34 0 0 Z " fill="#96C578" transform="translate(158,194)"/>
<path d="M0 0 C3.14624993 -0.26218749 4.61837017 -0.24754367 7.3125 1.5 C8.1478125 2.2425 8.1478125 2.2425 9 3 C6.03 3.66 3.06 4.32 0 5 C0 3.35 0 1.7 0 0 Z " fill="#A3D387" transform="translate(181,193)"/>
<path d="M0 0 C2.97 0.33 5.94 0.66 9 1 C9 1.99 9 2.98 9 4 C6.69 4 4.38 4 2 4 C2 3.34 2 2.68 2 2 C1.34 2 0.68 2 0 2 C0 1.34 0 0.68 0 0 Z " fill="#91C577" transform="translate(174,185)"/>
<path d="M0 0 C2.1640625 0.2421875 2.1640625 0.2421875 4.625 0.875 C5.44226563 1.07867187 6.25953125 1.28234375 7.1015625 1.4921875 C8.04128906 1.74355469 8.04128906 1.74355469 9 2 C8.01 3.485 8.01 3.485 7 5 C4.03 4.01 1.06 3.02 -2 2 C-1.34 1.34 -0.68 0.68 0 0 Z " fill="#81B584" transform="translate(71,162)"/>
<path d="M0 0 C-1.8253125 0.2165625 -1.8253125 0.2165625 -3.6875 0.4375 C-6.82670377 0.82780953 -9.9075134 1.32351856 -13 2 C-12.67 1.01 -12.34 0.02 -12 -1 C-3.42857143 -2.42857143 -3.42857143 -2.42857143 0 0 Z " fill="#2A3A71" transform="translate(49,125)"/>
<path d="M0 0 C0 0.99 0 1.98 0 3 C-5.41538462 5.21538462 -5.41538462 5.21538462 -8.375 4.125 C-8.91125 3.75375 -9.4475 3.3825 -10 3 C-3.375 0 -3.375 0 0 0 Z " fill="#404F86" transform="translate(64,116)"/>
<path d="M0 0 C0 2.6506582 -0.36825703 4.47302813 -1 7 C-1 7.99 -1 8.98 -1 10 C-4 9 -4 9 -7 7 C-6.34 7 -5.68 7 -5 7 C-4.731875 6.401875 -4.46375 5.80375 -4.1875 5.1875 C-3.01506533 3.02775192 -1.80630718 1.64209744 0 0 Z " fill="#6075A3" transform="translate(155,46)"/>
<path d="M0 0 C0.99 0.33 1.98 0.66 3 1 C1.6875 3.9375 1.6875 3.9375 0 7 C-0.99 7.33 -1.98 7.66 -3 8 C-2.45276317 4.62537285 -1.9451 2.91765 0 0 Z " fill="#19236A" transform="translate(37,49)"/>
<path d="M0 0 C0.66 0.66 1.32 1.32 2 2 C1.34 2 0.68 2 0 2 C-0.309375 3.11375 -0.61875 4.2275 -0.9375 5.375 C-2 9 -2 9 -3 11 C-3.99 10.67 -4.98 10.34 -6 10 C-5.01 7.69 -4.02 5.38 -3 3 C-2.34 3 -1.68 3 -1 3 C-0.67 2.01 -0.34 1.02 0 0 Z " fill="#395287" transform="translate(162,45)"/>
<path d="M0 0 C0.33 0.66 0.66 1.32 1 2 C-3.75 5 -3.75 5 -6 5 C-6.33 3.68 -6.66 2.36 -7 1 C-4.53721199 -0.231394 -2.7204945 -0.07159196 0 0 Z " fill="#294A91" transform="translate(96,89)"/>
<path d="M0 0 C1.32 0 2.64 0 4 0 C4.66 0.66 5.32 1.32 6 2 C5.34 3.65 4.68 5.3 4 7 C3.34 7 2.68 7 2 7 C2 6.01 2 5.02 2 4 C1.34 4 0.68 4 0 4 C0 2.68 0 1.36 0 0 Z " fill="#487D7A" transform="translate(155,72)"/>
<path d="M0 0 C0.66 0.66 1.32 1.32 2 2 C-0.3125 4.5 -0.3125 4.5 -3 7 C-3.99 7 -4.98 7 -6 7 C-4.52307692 2.32307692 -4.52307692 2.32307692 -1.875 0.6875 C-1.25625 0.460625 -0.6375 0.23375 0 0 Z " fill="#2B4976" transform="translate(150,61)"/>
<path d="M0 0 C2.3125 0.8125 2.3125 0.8125 4 2 C3.67 2.66 3.34 3.32 3 4 C2.34 4 1.68 4 1 4 C1 3.34 1 2.68 1 2 C0.54625 2.45375 0.0925 2.9075 -0.375 3.375 C-1.58333333 4.58333333 -2.79166667 5.79166667 -4 7 C-4.33 5.68 -4.66 4.36 -5 3 C-2.75 1.375 -2.75 1.375 0 0 Z " fill="#233E7E" transform="translate(117,58)"/>
<path d="M0 0 C0.33 0.66 0.66 1.32 1 2 C3.01669827 3.13350534 3.01669827 3.13350534 5 4 C5 5.32 5 6.64 5 8 C2.69 6.02 0.38 4.04 -2 2 C-1.34 1.34 -0.68 0.68 0 0 Z " fill="#22396E" transform="translate(135,27)"/>
<path d="M0 0 C1.98 0 3.96 0 6 0 C6 0.66 6 1.32 6 2 C6.99 2.33 7.98 2.66 9 3 C6.1875 3.625 6.1875 3.625 3 4 C2.01 3.34 1.02 2.68 0 2 C0 1.34 0 0.68 0 0 Z " fill="#6EA978" transform="translate(64,159)"/>
<path d="M0 0 C0.33 0 0.66 0 1 0 C1.33 3.3 1.66 6.6 2 10 C0.68 9.67 -0.64 9.34 -2 9 C-1.125 1.125 -1.125 1.125 0 0 Z " fill="#7DB68A" transform="translate(156,109)"/>
<path d="M0 0 C0.33 1.32 0.66 2.64 1 4 C1.66 4 2.32 4 3 4 C3 6.64 3 9.28 3 12 C2.67 11.34 2.34 10.68 2 10 C1.34 10 0.68 10 0 10 C0 6.7 0 3.4 0 0 Z " fill="#1F346B" transform="translate(29,105)"/>
<path d="M0 0 C0.66 0 1.32 0 2 0 C1.67 1.98 1.34 3.96 1 6 C-0.65 6.33 -2.3 6.66 -4 7 C-2.92598892 4.08482708 -2.22189824 2.22189824 0 0 Z " fill="#455583" transform="translate(17,103)"/>
<path d="M0 0 C1.32 0 2.64 0 4 0 C4 0.99 4 1.98 4 3 C5.32 2.67 6.64 2.34 8 2 C8 2.99 8 3.98 8 5 C2.25 4.125 2.25 4.125 0 3 C0 2.01 0 1.02 0 0 Z " fill="#2C4779" transform="translate(104,92)"/>
<path d="M0 0 C0.33 0.99 0.66 1.98 1 3 C-0.175625 2.9690625 -0.175625 2.9690625 -1.375 2.9375 C-3.98114961 2.81315937 -3.98114961 2.81315937 -6 4 C-6 3.34 -6 2.68 -6 2 C-7.32 2.33 -8.64 2.66 -10 3 C-10 2.34 -10 1.68 -10 1 C-8.71073008 0.63720544 -7.41846728 0.28503302 -6.125 -0.0625 C-5.40570313 -0.25972656 -4.68640625 -0.45695312 -3.9453125 -0.66015625 C-2 -1 -2 -1 0 0 Z " fill="#355192" transform="translate(109,82)"/>
<path d="M0 0 C3.36720387 1.39332574 4.9859524 2.9789286 7 6 C5.35 6.33 3.7 6.66 2 7 C1.814375 6.071875 1.814375 6.071875 1.625 5.125 C1.12802644 2.80879168 1.12802644 2.80879168 -1 1 C-0.67 0.67 -0.34 0.34 0 0 Z " fill="#7EBC8B" transform="translate(76,146)"/>
<path d="M0 0 C2.64 0 5.28 0 8 0 C7.01 0.33 6.02 0.66 5 1 C5 1.99 5 2.98 5 4 C2.69 3.67 0.38 3.34 -2 3 C-1.34 2.67 -0.68 2.34 0 2 C0 1.34 0 0.68 0 0 Z " fill="#243A80" transform="translate(24,127)"/>
<path d="M0 0 C0.66 0.99 1.32 1.98 2 3 C1.5390625 5.04296875 1.5390625 5.04296875 0.625 7.1875 C0.32851562 7.90292969 0.03203125 8.61835937 -0.2734375 9.35546875 C-0.51320313 9.89816406 -0.75296875 10.44085938 -1 11 C-2.1875 9.4375 -2.1875 9.4375 -3 7 C-1.625 3.25 -1.625 3.25 0 0 Z " fill="#526093" transform="translate(12,110)"/>
<path d="M0 0 C0.99 0.33 1.98 0.66 3 1 C3 1.66 3 2.32 3 3 C1.68 3 0.36 3 -1 3 C-1 3.66 -1 4.32 -1 5 C-2.65 4.67 -4.3 4.34 -6 4 C-4.03617993 2.49440461 -2.21736634 1.10868317 0 0 Z " fill="#465A8B" transform="translate(81,106)"/>
<path d="M0 0 C-3.79692186 2.82561627 -6.18569279 4.56638908 -11 4 C-4.45754717 -1.33726415 -4.45754717 -1.33726415 0 0 Z " fill="#273D77" transform="translate(103,90)"/>
<path d="M0 0 C0.66 0 1.32 0 2 0 C1.814375 0.94875 1.62875 1.8975 1.4375 2.875 C0.71313368 5.89868793 0.71313368 5.89868793 2 8 C1.01 8.33 0.02 8.66 -1 9 C-1.68707555 6.50935112 -2 4.62113708 -2 2 C-1.34 2 -0.68 2 0 2 C0 1.34 0 0.68 0 0 Z " fill="#3B528D" transform="translate(142,29)"/>
<path d="M0 0 C3.63 0.66 7.26 1.32 11 2 C11 2.33 11 2.66 11 3 C9.04310341 3.22142255 7.08438048 3.4267568 5.125 3.625 C3.48917969 3.79902344 3.48917969 3.79902344 1.8203125 3.9765625 C0.42425781 3.98816406 0.42425781 3.98816406 -1 4 C-1.66 3.34 -2.32 2.68 -3 2 C-2.01 2 -1.02 2 0 2 C0 1.34 0 0.68 0 0 Z " fill="#39487A" transform="translate(98,17)"/>
<path d="M0 0 C-1.39332574 3.36720387 -2.9789286 4.9859524 -6 7 C-6 5.02 -6 3.04 -6 1 C-3.92446352 0.4465236 -2.15634036 0 0 0 Z " fill="#A6CE9C" transform="translate(170,146)"/>
<path d="M0 0 C2 3 2 3 2 5 C1.34 5 0.68 5 0 5 C0 6.32 0 7.64 0 9 C-0.99 8.67 -1.98 8.34 -3 8 C-1.125 2.25 -1.125 2.25 0 0 Z " fill="#90C189" transform="translate(149,133)"/>
<path d="M0 0 C1.67542976 0.28604898 3.34385343 0.61781233 5 1 C5 2.98 5 4.96 5 7 C4.67 6.34 4.34 5.68 4 5 C2.68 5.33 1.36 5.66 0 6 C-0.38218767 4.34385343 -0.71395102 2.67542976 -1 1 C-0.67 0.67 -0.34 0.34 0 0 Z " fill="#55868D" transform="translate(154,68)"/>
<path d="M0 0 C5.625 -0.25 5.625 -0.25 9 2 C8.67 2.99 8.34 3.98 8 5 C6.68 4.67 5.36 4.34 4 4 C4 3.34 4 2.68 4 2 C2.68 1.34 1.36 0.68 0 0 Z " fill="#3A4E7E" transform="translate(146,38)"/>
<path d="M0 0 C0.99 0 1.98 0 3 0 C2.25 4.75 2.25 4.75 0 7 C-0.66 7 -1.32 7 -2 7 C-2 6.01 -2 5.02 -2 4 C-1.34 4 -0.68 4 0 4 C0 2.68 0 1.36 0 0 Z " fill="#80BD71" transform="translate(149,138)"/>
<path d="M0 0 C2.86724686 0.57344937 3.8614515 0.8614515 6 3 C3.29120665 4.35439668 0.99066732 4.06501451 -2 4 C-2 3.34 -2 2.68 -2 2 C-1.34 2 -0.68 2 0 2 C0 1.34 0 0.68 0 0 Z " fill="#92C58E" transform="translate(114,123)"/>
<path d="M0 0 C3.3 0.33 6.6 0.66 10 1 C5.64467851 3.17766075 4.53374042 3.03039555 0 2 C0 1.34 0 0.68 0 0 Z " fill="#203873" transform="translate(52,120)"/>
<path d="M0 0 C0.66 0.33 1.32 0.66 2 1 C1.67 1.66 1.34 2.32 1 3 C0.34 3 -0.32 3 -1 3 C-1.33 3.99 -1.66 4.98 -2 6 C-3.65 6 -5.3 6 -7 6 C-4.74259377 3.66475218 -2.7194239 1.81294927 0 0 Z " fill="#89B98A" transform="translate(103,106)"/>
<path d="M0 0 C0.66 0 1.32 0 2 0 C2.33 2.64 2.66 5.28 3 8 C2.01 8.495 2.01 8.495 1 9 C0.67 6.03 0.34 3.06 0 0 Z " fill="#4E8275" transform="translate(184,64)"/>
<path d="M0 0 C0.66 0.99 1.32 1.98 2 3 C1.34 3 0.68 3 0 3 C0 4.98 0 6.96 0 9 C-0.99 8.34 -1.98 7.68 -3 7 C-2.25 2.25 -2.25 2.25 0 0 Z " fill="#436D7C" transform="translate(156,62)"/>
<path d="M0 0 C0.99 0.33 1.98 0.66 3 1 C1.02 5.455 1.02 5.455 -1 10 C-1.33 10 -1.66 10 -2 10 C-2.17942163 6.05272412 -2.09350689 3.4019487 0 0 Z " fill="#252C6B" transform="translate(68,39)"/>
<path d="M0 0 C0.33 0 0.66 0 1 0 C1.05416188 1.60379341 1.09286638 3.20811406 1.125 4.8125 C1.14820313 5.70582031 1.17140625 6.59914063 1.1953125 7.51953125 C1 10 1 10 -1 13 C-1.33 10.36 -1.66 7.72 -2 5 C-1.34 5 -0.68 5 0 5 C0 3.35 0 1.7 0 0 Z " fill="#3D537C" transform="translate(174,36)"/>
<path d="M0 0 C3.25 1.375 3.25 1.375 6 3 C5.67 3.66 5.34 4.32 5 5 C2.03 4.01 -0.94 3.02 -4 2 C-2.68 1.34 -1.36 0.68 0 0 Z " fill="#263B76" transform="translate(150,20)"/>
<path d="M0 0 C6.875 2.75 6.875 2.75 8 5 C3.48279689 5.36625971 3.48279689 5.36625971 1.1875 3.625 C0 2 0 2 0 0 Z " fill="#384679" transform="translate(142,16)"/>
<path d="M0 0 C2.375 0.1875 2.375 0.1875 5 1 C6.3125 3.5625 6.3125 3.5625 7 6 C6.01 6 5.02 6 4 6 C4 5.34 4 4.68 4 4 C3.34 4 2.68 4 2 4 C2 3.34 2 2.68 2 2 C1.34 2 0.68 2 0 2 C0 1.34 0 0.68 0 0 Z " fill="#89C171" transform="translate(137,178)"/>
<path d="M0 0 C1.32 0.33 2.64 0.66 4 1 C4 1.66 4 2.32 4 3 C5.65 3 7.3 3 9 3 C8.01 3.33 7.02 3.66 6 4 C5.67 4.66 5.34 5.32 5 6 C2.5 4.6875 2.5 4.6875 0 3 C0 2.01 0 1.02 0 0 Z " fill="#7BAF89" transform="translate(58,155)"/>
<path d="M0 0 C1.875 0.25 1.875 0.25 4 1 C5.25 3.0625 5.25 3.0625 6 5 C5.01 5 4.02 5 3 5 C3 4.34 3 3.68 3 3 C2.01 3.33 1.02 3.66 0 4 C0 2.68 0 1.36 0 0 Z " fill="#6CAB6B" transform="translate(133,145)"/>
<path d="M0 0 C0.33 0 0.66 0 1 0 C3.48063781 9.41002278 3.48063781 9.41002278 2 14 C1.67 14 1.34 14 1 14 C0.67 9.38 0.34 4.76 0 0 Z " fill="#3F4484" transform="translate(60,54)"/>
<path d="M0 0 C1.125 1.5 1.125 1.5 2 4 C1.57598348 6.7773082 0.81108065 9.29639783 0 12 C-0.33 12 -0.66 12 -1 12 C-1.33 9.36 -1.66 6.72 -2 4 C-1.34 4 -0.68 4 0 4 C0 2.68 0 1.36 0 0 Z " fill="#3C417E" transform="translate(64,47)"/>
<path d="M0 0 C0.66 1.32 1.32 2.64 2 4 C-0.375 5.5625 -0.375 5.5625 -3 7 C-3.66 6.67 -4.32 6.34 -5 6 C-3.35 4.02 -1.7 2.04 0 0 Z " fill="#353A7E" transform="translate(50,31)"/>
<path d="M0 0 C0 0.66 0 1.32 0 2 C-0.66 2 -1.32 2 -2 2 C-2 2.66 -2 3.32 -2 4 C-3.32 4 -4.64 4 -6 4 C-6 3.34 -6 2.68 -6 2 C-6.66 1.34 -7.32 0.68 -8 0 C-5.13822943 -1.43088528 -3.06624227 -0.59991697 0 0 Z " fill="#3F5898" transform="translate(168,31)"/>
<path d="M0 0 C2.89932357 2.39509338 3.50168276 4.31245243 4 8 C-0.875 3.25 -0.875 3.25 -2 1 C-1.34 0.67 -0.68 0.34 0 0 Z " fill="#699C88" transform="translate(44,140)"/>
<path d="M0 0 C3.3 0.33 6.6 0.66 10 1 C10 1.33 10 1.66 10 2 C6.7 2.33 3.4 2.66 0 3 C0 2.01 0 1.02 0 0 Z " fill="#74B582" transform="translate(106,134)"/>
<path d="M0 0 C2.75 0.25 2.75 0.25 5 1 C2.75 3.0625 2.75 3.0625 0 5 C-2.3125 4.75 -2.3125 4.75 -4 4 C-2.3125 1.9375 -2.3125 1.9375 0 0 Z " fill="#35497F" transform="translate(65,121)"/>
<path d="M0 0 C0.99 0 1.98 0 3 0 C3.33 2.64 3.66 5.28 4 8 C3.34 8 2.68 8 2 8 C2 7.01 2 6.02 2 5 C1.34 5 0.68 5 0 5 C0 3.35 0 1.7 0 0 Z " fill="#1F2D66" transform="translate(9,119)"/>
<path d="M0 0 C-3.6441774 2.4294516 -5.71241272 2.16179575 -10 2 C-10 1.34 -10 0.68 -10 0 C-6.30581799 -1.231394 -3.7943739 -0.64432764 0 0 Z " fill="#3C5589" transform="translate(50,118)"/>
<path d="M0 0 C1.65 0 3.3 0 5 0 C3.9024777 2.99324263 3.32317108 3.84610901 0.375 5.25 C-0.40875 5.4975 -1.1925 5.745 -2 6 C-2 5.34 -2 4.68 -2 4 C-1.34 4 -0.68 4 0 4 C0 2.68 0 1.36 0 0 Z " fill="#77B275" transform="translate(104,105)"/>
<path d="M0 0 C2.89932357 2.39509338 3.50168276 4.31245243 4 8 C3.01 7.67 2.02 7.34 1 7 C0.67 4.69 0.34 2.38 0 0 Z " fill="#437177" transform="translate(180,54)"/>
<path d="M0 0 C2.31 0.33 4.62 0.66 7 1 C7.33 2.32 7.66 3.64 8 5 C6.68 4.01 5.36 3.02 4 2 C4 2.66 4 3.32 4 4 C3.01 3.67 2.02 3.34 1 3 C1.33 2.34 1.66 1.68 2 1 C1.34 0.67 0.68 0.34 0 0 Z " fill="#48629A" transform="translate(158,38)"/>
<path d="M0 0 C0.33 0.66 0.66 1.32 1 2 C1.99 2 2.98 2 4 2 C4.33 1.34 4.66 0.68 5 0 C5 1.65 5 3.3 5 5 C3.68 5 2.36 5 1 5 C1 4.34 1 3.68 1 3 C0.34 2.67 -0.32 2.34 -1 2 C-0.67 1.34 -0.34 0.68 0 0 Z " fill="#85BE7C" transform="translate(139,148)"/>
<path d="M0 0 C0.66 0 1.32 0 2 0 C2.33 0.99 2.66 1.98 3 3 C1.1875 4.5625 1.1875 4.5625 -1 6 C-1.99 5.67 -2.98 5.34 -4 5 C-3.01 4.67 -2.02 4.34 -1 4 C-0.26676204 1.98491642 -0.26676204 1.98491642 0 0 Z " fill="#475A8A" transform="translate(98,102)"/>
<path d="M0 0 C0.99 0 1.98 0 3 0 C2.67 1.32 2.34 2.64 2 4 C0.35 4 -1.3 4 -3 4 C-1.6875 2 -1.6875 2 0 0 Z " fill="#4A6693" transform="translate(133,68)"/>
<path d="M0 0 C0.99 0.33 1.98 0.66 3 1 C2.01 1.33 1.02 1.66 0 2 C-1.20882096 4.00016466 -1.20882096 4.00016466 -2 6 C-2.66 6 -3.32 6 -4 6 C-2.25 1.125 -2.25 1.125 0 0 Z " fill="#7887A8" transform="translate(164,46)"/>
<path d="M0 0 C0.66 0.33 1.32 0.66 2 1 C1.67 2.65 1.34 4.3 1 6 C-0.32 5.67 -1.64 5.34 -3 5 C-2.01 3.35 -1.02 1.7 0 0 Z " fill="#3E467F" transform="translate(40,43)"/>
</svg>
