<?xml version="1.0" encoding="UTF-8"?>
<svg version="1.1" xmlns="http://www.w3.org/2000/svg" width="334" height="334">
<path d="M0 0 C110.22 0 220.44 0 334 0 C334 110.22 334 220.44 334 334 C223.78 334 113.56 334 0 334 C0 223.78 0 113.56 0 0 Z " fill="#FAF6F8" transform="translate(0,0)"/>
<path d="M0 0 C60.39 0 120.78 0 183 0 C183 13.86 183 27.72 183 42 C165.675 42.495 165.675 42.495 148 43 C148 43.33 148 43.66 148 44 C159.55 44 171.1 44 183 44 C183 46.97 183 49.94 183 53 C181.02 52.814375 181.02 52.814375 179 52.625 C173.31346662 52.5980496 169.95332317 55.10355918 166 59 C163.75333866 62.36999202 163.7542629 63.56105462 163.8125 67.5 C163.81894531 68.4590625 163.82539063 69.418125 163.83203125 70.40625 C164.07276658 74.12365136 164.56625235 75.61191 167.375 78.125 C171.56753984 81.11967131 175.14184632 81.2384672 180.1875 81.5625 C182.09595703 81.68818359 182.09595703 81.68818359 184.04296875 81.81640625 C185.01878906 81.87699219 185.99460938 81.93757813 187 82 C187.33 82.99 187.66 83.98 188 85 C189.08667969 85.42732422 189.08667969 85.42732422 190.1953125 85.86328125 C193.74964839 87.30382685 196.14531371 89.57853049 198.875 92.1875 C199.4016626 92.68290283 199.9283252 93.17830566 200.47094727 93.6887207 C201.51504981 94.67438047 202.55592629 95.66347082 203.59326172 96.65625 C204.77171737 97.78193898 205.96430401 98.89280949 207.16015625 100 C217.22771253 109.55864685 224.57219643 125.94510662 225.06835938 139.92626953 C225.15702377 144.62020505 225.10365436 149.3067607 225 154 C221.7 154 218.4 154 215 154 C215.02094727 155.15298584 215.04189453 156.30597168 215.06347656 157.49389648 C215.1370157 161.85688373 215.18220457 166.21981892 215.21972656 170.58325195 C215.23958703 172.45574211 215.26668486 174.32817245 215.30175781 176.20043945 C215.53058917 188.74914748 214.53091739 199.93138807 211 212 C210.34 212 209.68 212 209 212 C208.67 213.98 208.34 215.96 208 218 C207.34 218 206.68 218 206 218 C205.773125 218.680625 205.54625 219.36125 205.3125 220.0625 C203.90837746 223.20505996 202.16066167 225.57928756 200.0234375 228.25390625 C198.66288669 230.2378307 198.66288669 230.2378307 199 234 C200.62626404 235.38232443 202.2925002 236.71937515 204 238 C204 238.66 204 239.32 204 240 C199.17683033 238.47689379 196.02883207 235.71193207 192.25 232.5 C181.72858929 223.831755 169.99598456 216.33968934 157 212 C155.83404297 211.57460938 155.83404297 211.57460938 154.64453125 211.140625 C137.74904143 205.14088657 119.76485006 207.4269388 103.25 213.3125 C102.4451416 213.59617432 101.6402832 213.87984863 100.81103516 214.17211914 C95.53340812 216.13879751 91.50944384 218.64104248 87 222 C86.34 222 85.68 222 85 222 C85.33 221.01 85.66 220.02 86 219 C86.66 219 87.32 219 88 219 C87.54762239 217.08191891 87.08785537 215.16557967 86.625 213.25 C86.36976562 212.18265625 86.11453125 211.1153125 85.8515625 210.015625 C85.13659152 207.10048431 85.13659152 207.10048431 83.9609375 204.984375 C81.26119496 199.4092969 81.86884671 192.83441295 81.90234375 186.7890625 C81.9037587 185.82092621 81.90517365 184.85278992 81.90663147 183.85531616 C81.91220635 180.77851201 81.92475423 177.70178197 81.9375 174.625 C81.94251825 172.53255314 81.94708059 170.44010513 81.95117188 168.34765625 C81.96216755 163.2317425 81.97941485 158.11588379 82 153 C79.03 153 76.06 153 73 153 C72.45710553 127.54428156 72.45710553 127.54428156 77.890625 117.9765625 C79.0540224 115.98489099 79.0540224 115.98489099 79.984375 113.7109375 C85.22633925 101.74558432 98.22225264 87.70620552 110 82 C113.33984375 81.62890625 113.33984375 81.62890625 116.9375 81.5625 C122.6936257 81.2734895 125.71792552 80.81914751 130 77 C130.99 76.34 131.98 75.68 133 75 C133.96436793 69.10931923 134.19855781 63.68445963 130.6875 58.75 C128.06541503 56.88143125 128.06541503 56.88143125 125 56 C125 55.34 125 54.68 125 54 C117.63246604 53.73675708 117.63246604 53.73675708 111.03125 56.4140625 C109.94164909 57.62651057 108.87469165 58.85959153 107.828125 60.109375 C105.64870829 62.36330168 103.47786064 63.51893677 100.6875 64.9375 C94.82221422 67.95071 90.02151796 71.7619813 85 76 C83.989375 76.763125 82.97875 77.52625 81.9375 78.3125 C69.17055966 89.99289223 62.17227671 103.83900354 57 120 C56.34 120 55.68 120 55 120 C55.061875 121.155 55.12375 122.31 55.1875 123.5 C55.20066992 127.29952212 54.23177072 129.87481601 52.734375 133.37109375 C50.9778699 139.6590083 51.21395803 146.50748033 51 153 C48.03 153.33 45.06 153.66 42 154 C41.92475284 159.81255394 41.87089059 165.62481244 41.83520508 171.43774414 C41.82029835 173.40719554 41.79996586 175.37661485 41.77368164 177.34594727 C41.54884557 194.64950723 42.49832501 210.12755354 50 226 C50.46148437 227.10601562 50.92296875 228.21203125 51.3984375 229.3515625 C56.34629543 240.62302423 62.67795572 250.90637546 71 260 C71.81984375 260.91265625 72.6396875 261.8253125 73.484375 262.765625 C83.27691454 273.13760475 94.78739276 280.6502626 108 286 C108.66 286.33 109.32 286.66 110 287 C110 292.28 110 297.56 110 303 C121.55 303 133.1 303 145 303 C145 300.03 145 297.06 145 294 C145.33 294 145.66 294 146 294 C146 307.2 146 320.4 146 334 C97.82 334 49.64 334 0 334 C0 223.78 0 113.56 0 0 Z " fill="#FBF6F9" transform="translate(0,0)"/>
<path d="M0 0 C2.125 1.8125 2.125 1.8125 3.34765625 4.6875 C5.5831405 8.61802176 7.67928498 9.6054932 11.6875 11.625 C18.42238208 15.19241817 23.62097028 19.52978616 29.125 24.8125 C30.49603223 25.94233212 31.87084148 27.0676019 33.25 28.1875 C40.64967454 34.67159615 45.636406 42.32473536 48.125 51.8125 C48.785 51.8125 49.445 51.8125 50.125 51.8125 C50.63160156 53.34970703 50.63160156 53.34970703 51.1484375 54.91796875 C51.5988774 56.27867263 52.04940276 57.63934822 52.5 59 C52.72171875 59.67353516 52.9434375 60.34707031 53.171875 61.04101562 C54.11816776 63.89380999 55.08552006 66.71549214 56.21875 69.5 C59.88196071 78.8475032 59.34752584 88.95955037 59.125 98.8125 C62.095 98.8125 65.065 98.8125 68.125 98.8125 C68.22526729 105.17638766 68.2971166 111.53979703 68.34472656 117.90429688 C68.36461246 120.06095406 68.39173096 122.21755902 68.42675781 124.37402344 C68.94158743 156.92942601 68.94158743 156.92942601 61.125 168.8125 C60.34454438 170.65405452 59.59588786 172.50932191 58.875 174.375 C55.08880863 183.61876452 50.07675068 193.4948677 43.125 200.8125 C42.465 200.8125 41.805 200.8125 41.125 200.8125 C41.125 201.8025 41.125 202.7925 41.125 203.8125 C42.115 204.18375 42.115 204.18375 43.125 204.5625 C45.47583865 205.5420161 47.67867589 206.58717339 49.9375 207.75 C57.37020331 211.47329811 63.77809066 213.31647465 72.125 213.8125 C72.455 214.8025 72.785 215.7925 73.125 216.8125 C73.58390625 216.26980469 74.0428125 215.72710937 74.515625 215.16796875 C75.43601562 214.09482422 75.43601562 214.09482422 76.375 213 C76.97828125 212.29230469 77.5815625 211.58460938 78.203125 210.85546875 C83.34599179 205.38855955 88.4476596 203.71780033 95.875 203.375 C104.53581107 203.53598162 111.40122539 207.44299818 117.72265625 213.19921875 C123.45558479 219.79448194 123.7031234 228.52956835 123.125 236.8125 C121.37369707 245.25184953 115.69516994 249.50787418 109.1875 254.48046875 C103.3502697 258.25034665 97.89618724 258.4202924 91.125 257.8125 C85.4245715 256.58205338 81.95828252 254.26739591 78.125 249.8125 C77.65835938 249.28914062 77.19171875 248.76578125 76.7109375 248.2265625 C73.125 244.11976257 73.125 244.11976257 73.125 241.8125 C72.48175781 241.79832031 71.83851563 241.78414062 71.17578125 241.76953125 C64.17626989 241.40008486 58.53004948 239.68028052 52.0703125 237.0078125 C49.77929309 236.07803539 47.63928941 235.33928663 45.25 234.75 C42.06978677 233.79593603 39.67544578 232.51177466 36.859375 230.8046875 C34.92672964 229.64712851 34.92672964 229.64712851 31.875 228.5 C22.31015784 224.49860071 14.54217738 217.90789094 7.125 210.8125 C6.795 211.1425 6.465 211.4725 6.125 211.8125 C9.425 215.1125 12.725 218.4125 16.125 221.8125 C15.795 222.8025 15.465 223.7925 15.125 224.8125 C13.27580417 225.54580179 11.421234 226.27475058 9.5234375 226.87109375 C6.92135115 227.80971772 6.92135115 227.80971772 4.0078125 229.7421875 C-0.51216991 232.3850022 -5.30064054 233.38392801 -10.375 234.5 C-11.28636719 234.71205078 -12.19773438 234.92410156 -13.13671875 235.14257812 C-41.47288551 241.62350516 -69.88709114 238.67339556 -94.90234375 223.71484375 C-108.89355773 214.76120221 -120.11158969 202.83069266 -128.875 188.8125 C-129.23609863 188.23709473 -129.59719727 187.66168945 -129.96923828 187.06884766 C-134.27987931 180.12232733 -137.72404391 173.28112371 -140.07421875 165.40234375 C-140.86342166 162.62313111 -140.86342166 162.62313111 -142.5 159.4375 C-146.91627261 147.79459948 -146.16011208 134.69847807 -146.08081055 122.43969727 C-146.06225312 119.46036445 -146.06030348 116.4813384 -146.06054688 113.50195312 C-146.05564125 111.60937229 -146.04981716 109.71679355 -146.04296875 107.82421875 C-146.04129951 106.48698006 -146.04129951 106.48698006 -146.03959656 105.12272644 C-145.99114645 98.92864645 -145.99114645 98.92864645 -144.875 97.8125 C-143.35571962 97.74070036 -141.83332518 97.72857993 -140.3125 97.75 C-139.07306641 97.76353516 -139.07306641 97.76353516 -137.80859375 97.77734375 C-136.85146484 97.79474609 -136.85146484 97.79474609 -135.875 97.8125 C-135.92720703 96.1109375 -135.92720703 96.1109375 -135.98046875 94.375 C-136.15034513 86.43834041 -136.20610697 80.14093534 -132.875 72.8125 C-132.37285391 70.13903701 -132.11731797 67.52646126 -131.875 64.8125 C-131.215 64.8125 -130.555 64.8125 -129.875 64.8125 C-129.7821875 63.45125 -129.7821875 63.45125 -129.6875 62.0625 C-128.22505724 52.14593609 -122.93308951 43.57110586 -116.875 35.8125 C-116.12089844 34.83152344 -115.36679688 33.85054687 -114.58984375 32.83984375 C-106.13397339 22.23985413 -96.38431417 14.82857792 -84.875 7.8125 C-81.49981221 5.68738176 -79.1878062 4.21730803 -76.75 1.0625 C-72.22505598 -2.47876053 -67.41726891 -1.5852705 -61.875 -1.1875 C-61.875 -0.5275 -61.875 0.1325 -61.875 0.8125 C-61.318125 0.874375 -60.76125 0.93625 -60.1875 1 C-56.47542886 2.30424121 -55.14513661 3.53341378 -52.875 6.8125 C-51.98071727 11.31898356 -51.86607162 15.3202323 -52.875 19.8125 C-55.1524764 22.6349256 -57.64040841 24.22768003 -60.875 25.8125 C-61.535 26.1425 -62.195 26.4725 -62.875 26.8125 C-65.0207736 26.83877478 -67.16662861 26.85854754 -69.3125 26.875 C-77.52497473 27.43646511 -81.91360066 30.34934078 -87.875 35.8125 C-89.31746094 37.12927734 -89.31746094 37.12927734 -90.7890625 38.47265625 C-98.42030311 45.67646573 -104.02950239 53.02396064 -107.875 62.8125 C-108.35283936 63.72020142 -108.35283936 63.72020142 -108.84033203 64.64624023 C-112.29192919 71.39180891 -112.72756594 77.89413185 -113.125 85.375 C-113.20234375 86.57447266 -113.2796875 87.77394531 -113.359375 89.00976562 C-113.54638128 91.94342669 -113.7178669 94.87711311 -113.875 97.8125 C-110.905 97.8125 -107.935 97.8125 -104.875 97.8125 C-104.845271 99.74899414 -104.845271 99.74899414 -104.81494141 101.72460938 C-104.73854015 106.54055407 -104.6498771 111.35621017 -104.55761719 116.171875 C-104.51946956 118.25124388 -104.48459255 120.33067555 -104.453125 122.41015625 C-104.40716446 125.40908158 -104.34922236 128.40757988 -104.2890625 131.40625 C-104.27751129 132.32740601 -104.26596008 133.24856201 -104.25405884 134.19763184 C-104.09594113 141.20289539 -103.03198814 147.44619434 -100.25 153.9375 C-98.93312919 157.35733287 -98.35889184 160.11372482 -98.875 163.8125 C-100.3984375 165.48046875 -100.3984375 165.48046875 -101.875 166.8125 C-101.35365479 166.42940674 -100.83230957 166.04631348 -100.29516602 165.65161133 C-94.4166954 161.51176166 -88.58206662 158.85887992 -81.8125 156.5 C-80.87083984 156.15388672 -79.92917969 155.80777344 -78.95898438 155.45117188 C-65.93856029 150.80296203 -50.22387971 149.716821 -36.875 153.8125 C-35.7096875 154.10769531 -34.544375 154.40289062 -33.34375 154.70703125 C-18.85739013 158.56182457 -7.40510514 166.64428892 4.3515625 175.6953125 C8.51329288 178.87229541 12.81238264 181.84519027 17.125 184.8125 C16.320625 184.090625 15.51625 183.36875 14.6875 182.625 C11.99650681 179.67147089 11.31432497 178.70226752 11.125 174.8125 C12.5234375 172.20703125 12.5234375 172.20703125 14.5 169.625 C15.14710938 168.76519531 15.79421875 167.90539062 16.4609375 167.01953125 C17.01007813 166.29121094 17.55921875 165.56289062 18.125 164.8125 C18.455 164.1525 18.785 163.4925 19.125 162.8125 C19.785 162.8125 20.445 162.8125 21.125 162.8125 C21.455 160.8325 21.785 158.8525 22.125 156.8125 C22.785 156.8125 23.445 156.8125 24.125 156.8125 C24.43807386 155.10427174 24.75043008 153.39591195 25.0625 151.6875 C25.23652344 150.73617187 25.41054687 149.78484375 25.58984375 148.8046875 C25.76644531 147.81726563 25.94304687 146.82984375 26.125 145.8125 C26.29451172 144.95785156 26.46402344 144.10320312 26.63867188 143.22265625 C27.25626882 138.8920367 27.35707289 134.6270378 27.44140625 130.2578125 C27.4725779 128.90549026 27.4725779 128.90549026 27.50437927 127.52584839 C27.5694458 124.6631386 27.62855914 121.80034181 27.6875 118.9375 C27.73072607 116.98957456 27.77434164 115.04165771 27.81835938 113.09375 C27.92508289 108.33342111 28.02646964 103.57300524 28.125 98.8125 C31.425 98.8125 34.725 98.8125 38.125 98.8125 C37.24021735 74.77081975 30.72228608 55.43364759 13.14453125 38.5234375 C9.94436102 35.56080778 6.51826681 33.1274154 2.76953125 30.8984375 C1.125 29.8125 1.125 29.8125 0.125 27.8125 C-3.37044305 27.45106021 -6.84775538 27.36777676 -10.359375 27.25390625 C-14.03365788 26.79257962 -15.89469563 25.93596686 -18.875 23.8125 C-19.6175 23.3175 -20.36 22.8225 -21.125 22.3125 C-23.51923447 20.26029902 -23.81125347 18.3925934 -24.1484375 15.32421875 C-24.45662632 6.75419885 -24.45662632 6.75419885 -21.8125 3.3125 C-14.83649297 -2.62452726 -8.31146106 -3.43299479 0 0 Z " fill="#FB3878" transform="translate(186.875,55.1875)"/>
<path d="M0 0 C11.22 0 22.44 0 34 0 C34 11.22 34 22.44 34 34 C22.78 34 11.56 34 0 34 C0 22.78 0 11.56 0 0 Z " fill="#FDF9FB" transform="translate(298,119)"/>
<path d="M0 0 C11.22 0 22.44 0 34 0 C34 11.22 34 22.44 34 34 C22.78 34 11.56 34 0 34 C0 22.78 0 11.56 0 0 Z " fill="#FDF9FB" transform="translate(298,82)"/>
<path d="M0 0 C11.22 0 22.44 0 34 0 C34 11.22 34 22.44 34 34 C22.78 34 11.56 34 0 34 C0 22.78 0 11.56 0 0 Z " fill="#FDF9FB" transform="translate(261,82)"/>
<path d="M0 0 C11.22 0 22.44 0 34 0 C34 11.22 34 22.44 34 34 C22.78 34 11.56 34 0 34 C0 22.78 0 11.56 0 0 Z " fill="#FDF9FB" transform="translate(298,7)"/>
<path d="M0 0 C11.22 0 22.44 0 34 0 C34 11.22 34 22.44 34 34 C22.78 34 11.56 34 0 34 C0 22.78 0 11.56 0 0 Z " fill="#FDF9FB" transform="translate(186,7)"/>
<path d="M0 0 C10.89 0 21.78 0 33 0 C33 11.55 33 23.1 33 35 C22.11 35 11.22 35 0 35 C0 23.45 0 11.9 0 0 Z " fill="#FDF9FB" transform="translate(0,44)"/>
<path d="M0 0 C0 11.22 0 22.44 0 34 C-11.22 34 -22.44 34 -34 34 C-34.061875 26.389375 -34.061875 26.389375 -34.125 18.625 C-34.14320801 17.02479004 -34.16141602 15.42458008 -34.18017578 13.77587891 C-34.1851709 12.52210449 -34.19016602 11.26833008 -34.1953125 9.9765625 C-34.21102295 8.04417725 -34.21102295 8.04417725 -34.22705078 6.07275391 C-34 3 -34 3 -32 1 C-21.90552956 -1.24321565 -10.21704133 -0.0650767 0 0 Z " fill="#FDF9FB" transform="translate(145,82)"/>
<path d="M0 0 C11.55 0 23.1 0 35 0 C35 9.9 35 19.8 35 30 C32.215625 29.9175 29.43125 29.835 26.5625 29.75 C19.69534213 29.66008833 13.82283296 29.92995859 8 34 C7.34 34.66 6.68 35.32 6 36 C4.02 36 2.04 36 0 36 C0 24.12 0 12.24 0 0 Z " fill="#FDF8FA" transform="translate(260,230)"/>
<path d="M0 0 C9.57 0 19.14 0 29 0 C29 11.55 29 23.1 29 35 C19.43 35 9.86 35 0 35 C0 23.45 0 11.9 0 0 Z " fill="#FDF9FB" transform="translate(185,156)"/>
<path d="M0 0 C11.22 0 22.44 0 34 0 C34 9.24 34 18.48 34 28 C22.78 28 11.56 28 0 28 C0 18.76 0 9.52 0 0 Z " fill="#FDF9FB" transform="translate(223,306)"/>
<path d="M0 0 C11.22 0 22.44 0 34 0 C34 9.24 34 18.48 34 28 C22.78 28 11.56 28 0 28 C0 18.76 0 9.52 0 0 Z " fill="#FDF9FB" transform="translate(111,306)"/>
<path d="M0 0 C11.55 0 23.1 0 35 0 C35 5.28 35 10.56 35 16 C31.8125 18.9375 31.8125 18.9375 29.62890625 19.8671875 C26.20173711 21.34397658 23.28424249 23.42241659 20.25 25.5625 C19.16203125 26.30628906 18.0740625 27.05007812 16.953125 27.81640625 C14.0019826 29.80202474 14.0019826 29.80202474 12.234375 32.21484375 C10 34 10 34 0 35 C0 23.45 0 11.9 0 0 Z " fill="#FDF8FB" transform="translate(73,44)"/>
<path d="M0 0 C10.89 0 21.78 0 33 0 C33 9.24 33 18.48 33 28 C22.11 28 11.22 28 0 28 C0 18.76 0 9.52 0 0 Z " fill="#FDF9FB" transform="translate(0,306)"/>
<path d="M0 0 C6.67692308 0 6.67692308 0 10.5 3.5 C14.58705838 6.98455889 18.72136112 9.79768816 23.375 12.4375 C23.96990234 12.77910156 24.56480469 13.12070312 25.17773438 13.47265625 C27.54997905 14.79745124 29.69093158 15.92966383 32.3515625 16.53515625 C32.89554688 16.68855469 33.43953125 16.84195312 34 17 C35.90029238 22.70087713 35 28.99074787 35 35 C23.45 35 11.9 35 0 35 C0 23.45 0 11.9 0 0 Z " fill="#FDF8FA" transform="translate(73,268)"/>
<path d="M0 0 C11.22 0 22.44 0 34 0 C34 11.22 34 22.44 34 34 C28.39 34 22.78 34 17 34 C14 27 14 27 14 25 C13.34 25 12.68 25 12 25 C10.13895272 22.32980174 8.88744057 19.71592143 7.6875 16.6875 C6.16095899 12.92039073 3.83026088 10.06857845 1.20703125 6.9921875 C0 5 0 5 0 0 Z " fill="#FDF8FA" transform="translate(223,82)"/>
<path d="M0 0 C8.25 0 16.5 0 25 0 C25 11.55 25 23.1 25 35 C16.75 35 8.5 35 0 35 C0 23.45 0 11.9 0 0 Z " fill="#FDF9FB" transform="translate(83,156)"/>
<path d="M0 0 C11.55 0 23.1 0 35 0 C35 11.55 35 23.1 35 35 C30.65556122 34.13111224 29.40598731 33.87179805 26.125 31.5 C23.21432451 29.45466047 20.28275812 27.56119898 17.1875 25.8125 C16.51831543 25.43029297 15.84913086 25.04808594 15.15966797 24.65429688 C13.82714692 23.89833821 12.48776074 23.15432554 11.14111328 22.42382812 C6.7360651 19.897521 5.08100576 17.76406349 3 13 C2.01 12.34 1.02 11.68 0 11 C0 7.37 0 3.74 0 0 Z " fill="#FDF6F9" transform="translate(185,44)"/>
<path d="M0 0 C13.86 0.495 13.86 0.495 28 1 C27.33639824 7.63601756 26.80046144 12.4952559 24.9375 18.625 C24.57527344 19.83414063 24.21304688 21.04328125 23.83984375 22.2890625 C23.56269531 23.18367188 23.28554687 24.07828125 23 25 C22.34 25 21.68 25 21 25 C20.773125 25.680625 20.54625 26.36125 20.3125 27.0625 C18.90837746 30.20505996 17.16066167 32.57928756 15.0234375 35.25390625 C13.66288669 37.2378307 13.66288669 37.2378307 14 41 C15.62626404 42.38232443 17.2925002 43.71937515 19 45 C19 45.66 19 46.32 19 47 C14.40288042 45.47050721 11.02290464 43.00027855 7.25 40.0625 C6.66089844 39.61970703 6.07179687 39.17691406 5.46484375 38.72070312 C1.12434325 35.37302975 1.12434325 35.37302975 0 32 C-0.0845387 29.5589224 -0.11605786 27.14740787 -0.09765625 24.70703125 C-0.0962413 24.00100266 -0.09482635 23.29497406 -0.09336853 22.56755066 C-0.08777764 20.31582374 -0.07522688 18.06419679 -0.0625 15.8125 C-0.05748382 14.28450665 -0.05292112 12.75651173 -0.04882812 11.22851562 C-0.0386627 7.48560772 -0.01908569 3.74291557 0 0 Z " fill="#FDF8FB" transform="translate(185,193)"/>
<path d="M0 0 C9.24 0 18.48 0 28 0 C28 11.55 28 23.1 28 35 C19.09 35 10.18 35 1 35 C2 31 2 31 3.0625 28 C5.42303189 19.68448992 4.46604743 11.76394624 1 4 C0.67 2.68 0.34 1.36 0 0 Z " fill="#FDF8FA" transform="translate(305,268)"/>
<path d="M0 0 C3.84523903 0.56292914 5.53681602 2.238546 8.25 4.9375 C11.44374062 8.00656005 14.2341284 10.23198368 18.2109375 12.1875 C18.93893555 12.56398682 19.66693359 12.94047363 20.41699219 13.32836914 C22.59472731 14.46075692 22.59472731 14.46075692 24.81738281 15.31811523 C26.8515625 16.37109375 26.8515625 16.37109375 30 20 C30 25.94 30 31.88 30 38 C18.12 38 6.24 38 -6 38 C-6 24 -6 24 -2 20 C0.21875 18.55078125 0.21875 18.55078125 2.5 17.3125 C3.2528125 16.89613281 4.005625 16.47976563 4.78125 16.05078125 C6.85999816 15.06630369 8.75444356 14.4644219 11 14 C9.46794314 10.32137996 7.23096451 8.05513258 4.375 5.3125 C2.90054809 3.89153767 1.4375643 2.45826995 0 1 C0 0.67 0 0.34 0 0 Z " fill="#FDF7F9" transform="translate(191,265)"/>
<path d="M0 0 C14.53856667 -0.41098422 27.9248183 4.57433609 39.00390625 14.15625 C39.00390625 14.81625 39.00390625 15.47625 39.00390625 16.15625 C37.60941516 16.639309 36.21323918 17.11750517 34.81640625 17.59375 C34.03910156 17.86058594 33.26179688 18.12742188 32.4609375 18.40234375 C15.97870735 23.45968941 -1.29918276 19.58893812 -16.1328125 11.77734375 C-18.99609375 10.15625 -18.99609375 10.15625 -21.99609375 8.15625 C-21.99609375 7.16625 -21.99609375 6.17625 -21.99609375 5.15625 C-14.57938857 2.22501541 -7.95254919 0.41473529 0 0 Z " fill="#FDF1F6" transform="translate(130.99609375,233.84375)"/>
<path d="M0 0 C11.55 0 23.1 0 35 0 C35 9.9 35 19.8 35 30 C27.27120823 27.79177378 27.27120823 27.79177378 23.3125 25.125 C17.85160788 21.69195842 12.16406637 19.80050048 6 18 C6 17.34 6 16.68 6 16 C4.02 15.34 2.04 14.68 0 14 C0 9.38 0 4.76 0 0 Z " fill="#FDF6F9" transform="translate(148,193)"/>
<path d="M0 0 C11.55 0 23.1 0 35 0 C35 2.97 35 5.94 35 9 C33.68 8.87625 32.36 8.7525 31 8.625 C25.31346662 8.5980496 21.95332317 11.10355918 18 15 C15.77563496 18.33654756 15.75336322 19.42560103 15.8125 23.3125 C15.81894531 24.23675781 15.82539063 25.16101563 15.83203125 26.11328125 C15.97966036 29.53670556 15.97966036 29.53670556 17 35 C11.39 35 5.78 35 0 35 C0 23.45 0 11.9 0 0 Z " fill="#FDF8FB" transform="translate(148,44)"/>
<path d="M0 0 C0.9075 0.00257813 1.815 0.00515625 2.75 0.0078125 C4.11125 0.00394531 4.11125 0.00394531 5.5 0 C7.75 0.1328125 7.75 0.1328125 8.75 1.1328125 C8.83851529 3.72640572 8.86525945 6.29320941 8.84765625 8.88671875 C8.8462413 9.66216537 8.84482635 10.437612 8.84336853 11.23655701 C8.83775345 13.72284744 8.82519846 16.2090491 8.8125 18.6953125 C8.80748694 20.37695183 8.8029237 22.05859256 8.79882812 23.74023438 C8.78777913 27.87112816 8.77050445 32.00195526 8.75 36.1328125 C6.07336057 36.22819723 3.40019292 36.29712578 0.72265625 36.3515625 C-0.02479858 36.38088867 -0.77225342 36.41021484 -1.5423584 36.44042969 C-9.42671133 36.56018118 -14.76436166 33.55432594 -21.25 29.1328125 C-21.25 28.1428125 -21.25 27.1528125 -21.25 26.1328125 C-20.59 26.1328125 -19.93 26.1328125 -19.25 26.1328125 C-19.00121094 25.60171875 -18.75242188 25.070625 -18.49609375 24.5234375 C-16.93271793 21.52410834 -15.15291037 18.72054022 -13.3125 15.8828125 C-12.27802734 14.26632813 -12.27802734 14.26632813 -11.22265625 12.6171875 C-10.57167969 11.79734375 -9.92070312 10.9775 -9.25 10.1328125 C-8.26 10.1328125 -7.27 10.1328125 -6.25 10.1328125 C-6.04503906 9.49472656 -5.84007812 8.85664063 -5.62890625 8.19921875 C-5.35949219 7.37292969 -5.09007812 6.54664063 -4.8125 5.6953125 C-4.54566406 4.87160156 -4.27882812 4.04789063 -4.00390625 3.19921875 C-2.89914034 0.17112981 -2.89914034 0.17112981 0 0 Z " fill="#FDF4F7" transform="translate(249.25,229.8671875)"/>
<path d="M0 0 C11.88 0 23.76 0 36 0 C36 11.55 36 23.1 36 35 C31.05 35 26.1 35 21 35 C21.66 33.68 22.32 32.36 23 31 C23.72411183 25.03179411 24.25034149 19.75723668 20.6875 14.75 C18.06541503 12.88143125 18.06541503 12.88143125 15 12 C15 11.34 15 10.68 15 10 C10.05 10.33 5.1 10.66 0 11 C0 7.37 0 3.74 0 0 Z " fill="#FDF5F8" transform="translate(110,44)"/>
<path d="M0 0 C10.97103024 2.19420605 19.52460932 13.01599888 27 21 C29.29013653 24.4352048 29.17842973 25.985331 29 30 C29.66 30 30.32 30 31 30 C31 30.99 31 31.98 31 33 C20.77 33 10.54 33 0 33 C0 22.11 0 11.22 0 0 Z " fill="#FDF5F8" transform="translate(185,84)"/>
<path d="M0 0 C6.6 0 13.2 0 20 0 C18.11812261 13.54951718 18.11812261 13.54951718 17.48632812 15.95898438 C16.98953015 18.04393974 16.79699037 19.97103878 16.68359375 22.109375 C16.64169922 22.86347656 16.59980469 23.61757812 16.55664062 24.39453125 C16.51732422 25.17183594 16.47800781 25.94914062 16.4375 26.75 C16.39431641 27.54277344 16.35113281 28.33554688 16.30664062 29.15234375 C16.20097009 31.10137815 16.10002034 33.05066748 16 35 C10.72 35 5.44 35 0 35 C0 23.45 0 11.9 0 0 Z " fill="#FDF7FA" transform="translate(35,118)"/>
<path d="M0 0 C1.60031344 3.20062687 0.03173691 5.72271806 -1 9 C-0.33514587 8.92894547 0.32970825 8.85789093 1.01470947 8.78468323 C10.13796315 7.9083851 19.20671347 7.87105847 28.359375 7.90234375 C29.81656862 7.90381823 31.27376277 7.90483582 32.73095703 7.90539551 C38.07064622 7.91058976 43.41032399 7.92455075 48.75 7.9375 C66.69375 7.9684375 66.69375 7.9684375 85 8 C85 42.98 85 77.96 85 114 C84.67 114 84.34 114 84 114 C83.67 104.43 83.34 94.86 83 85 C73.59116658 85.32853227 73.59116658 85.32853227 64.18237305 85.65820312 C63.01230713 85.69880859 61.84224121 85.73941406 60.63671875 85.78125 C59.43748779 85.82314453 58.23825684 85.86503906 57.00268555 85.90820312 C55.0024909 85.96935226 53.00112914 86 51 86 C52.65 84.02 54.3 82.04 56 80 C56.33 80.99 56.66 81.98 57 83 C65.91 83 74.82 83 84 83 C84 71.45 84 59.9 84 48 C74.5452958 48.44746335 74.5452958 48.44746335 65.09228516 48.9284668 C63.33343994 49.00061401 63.33343994 49.00061401 61.5390625 49.07421875 C60.33459473 49.13182373 59.13012695 49.18942871 57.88916016 49.2487793 C56.9357373 49.16668213 55.98231445 49.08458496 55 49 C54.34 48.01 53.68 47.02 53 46 C63.23 46 73.46 46 84 46 C84 34.12 84 22.24 84 10 C66.675 10.495 66.675 10.495 49 11 C49 21.56 49 32.12 49 43 C46.36 42.34 43.72 41.68 41 41 C41 40.67 41 40.34 41 40 C42.65 40 44.3 40 46 40 C46 30.1 46 20.2 46 10 C34.45 10 22.9 10 11 10 C11 21.88 11 33.76 11 46 C12.65 46 14.3 46 16 46 C14.35 48.31 12.7 50.62 11 53 C10.67 51.68 10.34 50.36 10 49 C9.32453125 49.02320313 8.6490625 49.04640625 7.953125 49.0703125 C7.06109375 49.08835937 6.1690625 49.10640625 5.25 49.125 C3.92742187 49.15980469 3.92742187 49.15980469 2.578125 49.1953125 C-0.1135858 48.99139502 -1.69904974 48.36551721 -4 47 C-4 46.67 -4 46.34 -4 46 C0.29 46 4.58 46 9 46 C8.67 34.45 8.34 22.9 8 11 C4.7 11 1.4 11 -2 11 C-3.98 15.455 -3.98 15.455 -6 20 C-6.66 20 -7.32 20 -8 20 C-6.59128327 15.68211942 -5.06140508 11.42904312 -3.4375 7.1875 C-3.00308594 6.04667969 -2.56867188 4.90585938 -2.12109375 3.73046875 C-1 1 -1 1 0 0 Z " fill="#EBE2E5" transform="translate(249,220)"/>
<path d="M0 0 C0.66 0 1.32 0 2 0 C2 10.23 2 20.46 2 31 C-6.91 31 -15.82 31 -25 31 C-25 20.00045988 -16.00654656 12.67230528 -8.61328125 5.21484375 C-6.0868459 3.07360482 -4.10477312 2.04942419 -1 1 C-0.67 0.67 -0.34 0.34 0 0 Z " fill="#FCF6F9" transform="translate(106,86)"/>
<path d="M0 0 C23.43 0 46.86 0 71 0 C70.67 1.98 70.34 3.96 70 6 C70.495 6.495 70.495 6.495 71 7 C71.0885067 9.59334148 71.1153317 12.16062579 71.09765625 14.75390625 C71.09664917 15.44093628 71.09564209 16.12796631 71.09460449 16.83581543 C71.08935776 19.41139384 71.07539659 21.98694853 71.0625 24.5625 C71.041875 30.316875 71.02125 36.07125 71 42 C59.12 42 47.24 42 35 42 C35 30.45 35 18.9 35 7 C23.45 7 11.9 7 0 7 C0 4.69 0 2.38 0 0 Z M36 7 C36 18.22 36 29.44 36 41 C47.22 41 58.44 41 70 41 C70 29.78 70 18.56 70 7 C58.78 7 47.56 7 36 7 Z " fill="#F2EEF0" transform="translate(0,0)"/>
<path d="M0 0 C8.25 0 16.5 0 25 0 C25.103125 2.908125 25.20625 5.81625 25.3125 8.8125 C25.38078003 10.18112183 25.38078003 10.18112183 25.45043945 11.57739258 C25.48887991 13.8042111 25.44580146 15.81526844 25 18 C22.7890625 19.953125 22.7890625 19.953125 20 21 C19.18660156 21.33902344 18.37320313 21.67804688 17.53515625 22.02734375 C16.71917969 22.32769531 15.90320313 22.62804687 15.0625 22.9375 C10.91756907 24.53740628 7.62407012 26.46315091 4 29 C3.34 29 2.68 29 2 29 C2.33 28.01 2.66 27.02 3 26 C3.66 26 4.32 26 5 26 C4.54762239 24.08191891 4.08785537 22.16557967 3.625 20.25 C3.36976562 19.18265625 3.11453125 18.1153125 2.8515625 17.015625 C2.03100609 13.74981711 2.03100609 13.74981711 0 10 C0 6.7 0 3.4 0 0 Z " fill="#FDF4F8" transform="translate(83,193)"/>
<path d="M0 0 C1.47583955 0.0001591 2.95168467 0.00585225 4.42749023 0.01586914 C5.20293686 0.01728409 5.97838348 0.01869904 6.77732849 0.02015686 C9.26361893 0.02577194 11.74982059 0.03832693 14.23608398 0.05102539 C15.91772331 0.05603845 17.59936405 0.06060169 19.28100586 0.06469727 C23.41189965 0.07574626 27.54272674 0.09302094 31.67358398 0.11352539 C31.67358398 4.73352539 31.67358398 9.35352539 31.67358398 14.11352539 C30.01069336 14.09032227 28.34780273 14.06711914 26.63452148 14.04321289 C24.43921348 14.02444957 22.24390062 14.00624998 20.04858398 13.98852539 C18.95416992 13.97176758 17.85975586 13.95500977 16.73217773 13.93774414 C11.21884481 13.90433 6.87454 14.1299776 1.67358398 16.11352539 C-1.70141602 16.23852539 -1.70141602 16.23852539 -4.32641602 16.11352539 C-4.35326697 13.63428738 -4.37318149 11.15533699 -4.38891602 8.67602539 C-4.40148437 7.61544922 -4.40148437 7.61544922 -4.41430664 6.53344727 C-4.42295189 4.7265898 -4.37861613 2.91964936 -4.32641602 1.11352539 C-3.32641602 0.11352539 -3.32641602 0.11352539 0 0 Z " fill="#FDF8FA" transform="translate(114.326416015625,192.886474609375)"/>
<path d="M0 0 C2.47923801 -0.02685095 4.9581884 -0.04676547 7.4375 -0.0625 C8.14455078 -0.07087891 8.85160156 -0.07925781 9.58007812 -0.08789062 C11.38693559 -0.09653588 13.19387603 -0.05220011 15 0 C16 1 16 1 16.11352539 4.32641602 C16.11336629 5.80225556 16.10767314 7.27810069 16.09765625 8.75390625 C16.0962413 9.52935287 16.09482635 10.3047995 16.09336853 11.10374451 C16.08775345 13.59003494 16.07519846 16.0762366 16.0625 18.5625 C16.05748694 20.24413933 16.0529237 21.92578006 16.04882812 23.60742188 C16.03777913 27.73831566 16.02050445 31.86914276 16 36 C12.04 35.67 8.08 35.34 4 35 C3.96261719 34.09121094 3.92523438 33.18242187 3.88671875 32.24609375 C3.45638899 24.01920127 2.42753969 16.28043978 0.62109375 8.2421875 C0.07382463 5.38537388 -0.12561373 2.8945773 0 0 Z " fill="#FDF7F9" transform="translate(242,118)"/>
<path d="M0 0 C6.33507925 0.88554871 12.48598184 1.75011258 18.625 3.5625 C24.04782312 5.14382397 29.37432037 5.68443963 35 6 C35 8.97 35 11.94 35 15 C23.45 15 11.9 15 0 15 C0 10.05 0 5.1 0 0 Z " fill="#FDF6F9" transform="translate(110,288)"/>
<path d="M0 0 C7.88322148 1.1261745 7.88322148 1.1261745 11.25 2.3125 C12.00539062 2.57417969 12.76078125 2.83585937 13.5390625 3.10546875 C15.28846474 3.74136258 17.03279118 4.39129694 18.7734375 5.05078125 C23.91679818 6.98834863 28.53970827 8.40649003 34 9 C35 10 35 10 35 16 C23.45 16 11.9 16 0 16 C0 10.72 0 5.44 0 0 Z " fill="#FDF3F7" transform="translate(222,287)"/>
<path d="M0 0 C0 4.62 0 9.24 0 14 C-11.88 14 -23.76 14 -36 14 C-36 6 -36 6 -35 5 C-31.168717 4.54769576 -27.33812875 4.18253495 -23.49609375 3.83789062 C-17.15614486 3.22770775 -11.07614764 2.10700095 -4.9296875 0.43774414 C-3 0 -3 0 0 0 Z " fill="#FDF8FA" transform="translate(183,289)"/>
<path d="M0 0 C0.33 0 0.66 0 1 0 C1 24.09 1 48.18 1 73 C13.21 72.67 25.42 72.34 38 72 C37.505 73.485 37.505 73.485 37 75 C12.63762203 75.13182008 -11.6481726 74.80501909 -36 74 C-36 86.54 -36 99.08 -36 112 C-37.32 112 -38.64 112 -40 112 C-40 124.21 -40 136.42 -40 149 C-40.33 149 -40.66 149 -41 149 C-41 136.13 -41 123.26 -41 110 C-43.97 110 -46.94 110 -50 110 C-50 109.67 -50 109.34 -50 109 C-46.37 109 -42.74 109 -39 109 C-39 97.78 -39 86.56 -39 75 C-43.95 74.67 -48.9 74.34 -54 74 C-54.33 75.32 -54.66 76.64 -55 78 C-55.495 75.03 -55.495 75.03 -56 72 C-37.65477021 71.79489805 -19.33333134 72.41877466 -1 73 C-1.00523682 71.99662598 -1.01047363 70.99325195 -1.01586914 69.95947266 C-1.12654361 46.61764978 -0.85577798 23.3267779 0 0 Z " fill="#E8E5E6" transform="translate(296,44)"/>
<path d="M0 0 C1.2065625 0.0309375 1.2065625 0.0309375 2.4375 0.0625 C2.53772461 0.63057373 2.63794922 1.19864746 2.74121094 1.78393555 C4.55655161 11.96486822 6.39290747 21.94565063 9.703125 31.76171875 C10.4375 34.0625 10.4375 34.0625 10.4375 36.0625 C5.8175 36.0625 1.1975 36.0625 -3.5625 36.0625 C-3.58715098 31.09627651 -3.60533649 26.13008834 -3.61743164 21.16381836 C-3.6224719 19.47305684 -3.62930405 17.78229971 -3.63793945 16.09155273 C-3.65001857 13.66649293 -3.65573123 11.24149056 -3.66015625 8.81640625 C-3.66531754 8.05598526 -3.67047882 7.29556427 -3.67579651 6.51210022 C-3.67599238 4.6951743 -3.62447277 2.87836873 -3.5625 1.0625 C-2.5625 0.0625 -2.5625 0.0625 0 0 Z " fill="#FCF6F9" transform="translate(38.5625,192.9375)"/>
<path d="M0 0 C3.55573146 0.71523334 5.48310928 1.85420303 8.0390625 4.41015625 C8.8130454 9.2088502 8.44035355 11.43309977 6.6015625 15.91015625 C3.84564041 18.59886072 3.25714319 18.87222877 -0.3984375 19.09765625 C-3.83721282 18.84230165 -5.02621007 18.36752927 -8.0234375 16.41015625 C-10.51038514 12.55939862 -10.90495189 9.86950042 -9.9609375 5.41015625 C-7.61615428 0.7205898 -5.27842249 -0.38550277 0 0 Z " fill="#FDF0F5" transform="translate(283.9609375,276.58984375)"/>
<path d="M0 0 C24.42 0 48.84 0 74 0 C74 9.57 74 19.14 74 29 C73.01 29 72.02 29 71 29 C71 19.76 71 10.52 71 1 C59.78 1 48.56 1 37 1 C37 10.24 37 19.48 37 29 C36.01 29 35.02 29 34 29 C34 19.76 34 10.52 34 1 C22.78 1 11.56 1 0 1 C0 0.67 0 0.34 0 0 Z " fill="#F1EDEF" transform="translate(186,305)"/>
<path d="M0 0 C11.55 0 23.1 0 35 0 C35 24.09 35 48.18 35 73 C34.67 73 34.34 73 34 73 C34 61.45 34 49.9 34 38 C23.22963613 38.07914648 23.22963613 38.07914648 12.45947266 38.18017578 C11.11100581 38.18601603 9.76253545 38.1911127 8.4140625 38.1953125 C7.71176514 38.20554443 7.00946777 38.21577637 6.28588867 38.22631836 C4.52231164 38.2269548 2.75930576 38.12266864 1 38 C-1.52584607 35.47415393 -1.23704324 33.90793507 -1.25224304 30.4627533 C-1.24505753 29.71063065 -1.23787201 28.958508 -1.23046875 28.18359375 C-1.23001053 27.41193375 -1.22955231 26.64027374 -1.2290802 25.8452301 C-1.22605787 24.21361758 -1.21817213 22.58200795 -1.20581055 20.95043945 C-1.18754787 18.44407 -1.18530088 15.93806967 -1.18554688 13.43164062 C-1.18063198 11.84895512 -1.17480379 10.26627213 -1.16796875 8.68359375 C-1.16685593 7.92944687 -1.1657431 7.17529999 -1.16459656 6.39830017 C-1.11605119 1.11605119 -1.11605119 1.11605119 0 0 Z M0 1 C0 12.22 0 23.44 0 35 C11.22 35 22.44 35 34 35 C34 23.78 34 12.56 34 1 C22.78 1 11.56 1 0 1 Z " fill="#F2EEF0" transform="translate(298,118)"/>
<path d="M0 0 C1.60031344 3.20062687 0.03173691 5.72271806 -1 9 C-0.34547852 8.92273682 0.30904297 8.84547363 0.98339844 8.76586914 C10.44883876 7.8008442 19.76395947 8.09753673 29.25 8.4375 C30.88148986 8.49086649 32.51300039 8.54360519 34.14453125 8.59570312 C38.09662923 8.72324554 42.04835182 8.8592345 46 9 C46 9.33 46 9.66 46 10 C34.45 10 22.9 10 11 10 C11 21.88 11 33.76 11 46 C12.65 46 14.3 46 16 46 C14.35 48.31 12.7 50.62 11 53 C10.67 51.68 10.34 50.36 10 49 C9.32453125 49.02320313 8.6490625 49.04640625 7.953125 49.0703125 C7.06109375 49.08835937 6.1690625 49.10640625 5.25 49.125 C3.92742187 49.15980469 3.92742187 49.15980469 2.578125 49.1953125 C-0.1135858 48.99139502 -1.69904974 48.36551721 -4 47 C-4 46.67 -4 46.34 -4 46 C0.29 46 4.58 46 9 46 C8.67 34.45 8.34 22.9 8 11 C4.7 11 1.4 11 -2 11 C-3.98 15.455 -3.98 15.455 -6 20 C-6.66 20 -7.32 20 -8 20 C-6.59128327 15.68211942 -5.06140508 11.42904312 -3.4375 7.1875 C-3.00308594 6.04667969 -2.56867188 4.90585938 -2.12109375 3.73046875 C-1 1 -1 1 0 0 Z " fill="#EDE9EB" transform="translate(249,220)"/>
<path d="M0 0 C0.99 0 1.98 0 3 0 C3 11.88 3 23.76 3 36 C-0.3 36 -3.6 36 -7 36 C-6.170789 29.13074068 -4.49145757 22.53116302 -2.81640625 15.82617188 C-1.52475974 10.54876409 -0.55641507 5.4060782 0 0 Z " fill="#FBEFF4" transform="translate(255,193)"/>
<path d="M0 0 C1.65 0 3.3 0 5 0 C5 11.55 5 23.1 5 35 C3.35 35 1.7 35 0 35 C0 23.45 0 11.9 0 0 Z " fill="#FDF6F9" transform="translate(36,156)"/>
<path d="M0 0 C6.6 0 13.2 0 20 0 C20 13.2 20 26.4 20 40 C18.68 40 17.36 40 16 40 C16 52.21 16 64.42 16 77 C15.67 77 15.34 77 15 77 C15 64.13 15 51.26 15 38 C12.03 38 9.06 38 6 38 C6 37.67 6 37.34 6 37 C9.63 37 13.26 37 17 37 C17 25.78 17 14.56 17 3 C12.05 2.67 7.1 2.34 2 2 C1.67 3.32 1.34 4.64 1 6 C0.67 4.02 0.34 2.04 0 0 Z " fill="#F0D3DD" transform="translate(240,116)"/>
<path d="M0 0 C0.33 0 0.66 0 1 0 C0.86183041 3.64616671 0.71318466 7.29183074 0.5625 10.9375 C0.52318359 11.97841797 0.48386719 13.01933594 0.44335938 14.09179688 C0.40146484 15.08115234 0.35957031 16.07050781 0.31640625 17.08984375 C0.26141968 18.46450806 0.26141968 18.46450806 0.20532227 19.86694336 C0 22 0 22 -1 23 C-3.67058851 23.14115161 -6.32432238 23.04247107 -9 23 C-8.90709969 29.6530737 -8.79971838 36.30580471 -8.68261719 42.95849609 C-8.64450856 45.21820882 -8.60962525 47.47797846 -8.578125 49.73779297 C-8.53207877 52.99988042 -8.47415186 56.26158204 -8.4140625 59.5234375 C-8.39673569 61.02093033 -8.39673569 61.02093033 -8.37905884 62.54867554 C-8.26250751 68.1812415 -7.68635135 73.35154933 -6.32528687 78.8253479 C-5.97101328 81.19378598 -6.26673778 82.73994853 -7 85 C-7.48539869 83.16830682 -7.96297186 81.33453941 -8.4375 79.5 C-8.83775391 77.96859375 -8.83775391 77.96859375 -9.24609375 76.40625 C-10.84303563 69.19105145 -11.14943434 62.20629436 -11.1328125 54.84765625 C-11.13376923 53.90691757 -11.13472595 52.96617889 -11.13571167 51.99693298 C-11.13638812 50.02456596 -11.13457139 48.05219665 -11.13037109 46.07983398 C-11.12497297 43.04731342 -11.13035563 40.01493814 -11.13671875 36.98242188 C-11.1360587 35.06249967 -11.13477905 33.14257756 -11.1328125 31.22265625 C-11.13483673 30.31234146 -11.13686096 29.40202667 -11.13894653 28.46412659 C-11.11497809 22.11497809 -11.11497809 22.11497809 -10 21 C-8.48071962 20.92820036 -6.95832518 20.91607993 -5.4375 20.9375 C-4.61121094 20.94652344 -3.78492188 20.95554688 -2.93359375 20.96484375 C-1.97646484 20.98224609 -1.97646484 20.98224609 -1 21 C-1.01160156 19.81921875 -1.02320313 18.6384375 -1.03515625 17.421875 C-1.04453752 15.86458492 -1.05363736 14.30729312 -1.0625 12.75 C-1.07087891 11.97269531 -1.07925781 11.19539062 -1.08789062 10.39453125 C-1.09111328 9.64042969 -1.09433594 8.88632813 -1.09765625 8.109375 C-1.10289307 7.41811523 -1.10812988 6.72685547 -1.11352539 6.01464844 C-0.99437971 3.90026102 -0.57618237 2.03358485 0 0 Z " fill="#FC84AB" transform="translate(52,132)"/>
<path d="M0 0 C11.88 0 23.76 0 36 0 C36 1.32 36 2.64 36 4 C24.12 4 12.24 4 0 4 C0 2.68 0 1.36 0 0 Z " fill="#FDF9FB" transform="translate(297,0)"/>
<path d="M0 0 C11.55 0 23.1 0 35 0 C35 1.32 35 2.64 35 4 C23.45 4 11.9 4 0 4 C0 2.68 0 1.36 0 0 Z " fill="#FDF9FB" transform="translate(260,0)"/>
<path d="M0 0 C11.55 0 23.1 0 35 0 C35 1.32 35 2.64 35 4 C23.45 4 11.9 4 0 4 C0 2.68 0 1.36 0 0 Z " fill="#FDF9FB" transform="translate(223,0)"/>
<path d="M0 0 C11.55 0 23.1 0 35 0 C35 1.32 35 2.64 35 4 C23.45 4 11.9 4 0 4 C0 2.68 0 1.36 0 0 Z " fill="#FDF9FB" transform="translate(185,0)"/>
<path d="M0 0 C11.55 0 23.1 0 35 0 C35 1.32 35 2.64 35 4 C23.45 4 11.9 4 0 4 C0 2.68 0 1.36 0 0 Z " fill="#FDF9FB" transform="translate(148,0)"/>
<path d="M0 0 C11.55 0 23.1 0 35 0 C35 1.32 35 2.64 35 4 C23.45 4 11.9 4 0 4 C0 2.68 0 1.36 0 0 Z " fill="#FDF9FB" transform="translate(111,0)"/>
<path d="M0 0 C11.55 0 23.1 0 35 0 C35 1.32 35 2.64 35 4 C23.45 4 11.9 4 0 4 C0 2.68 0 1.36 0 0 Z " fill="#FDF9FB" transform="translate(73,0)"/>
<path d="M0 0 C11.55 0 23.1 0 35 0 C35 1.32 35 2.64 35 4 C23.45 4 11.9 4 0 4 C0 2.68 0 1.36 0 0 Z " fill="#FDF9FB" transform="translate(36,0)"/>
<path d="M0 0 C0.82514784 2.83384108 1.07936233 5.16935251 0.87890625 8.109375 C0.83056641 8.86347656 0.78222656 9.61757812 0.73242188 10.39453125 C0.64831055 11.56048828 0.64831055 11.56048828 0.5625 12.75 C0.51029297 13.54277344 0.45808594 14.33554688 0.40429688 15.15234375 C0.27510676 17.10193997 0.13830035 19.05102886 0 21 C2.97 21 5.94 21 9 21 C9.33 36.84 9.66 52.68 10 69 C6.43294281 65.43294281 6.96013953 59.647446 6.88647461 54.78710938 C6.88662996 53.30598015 6.89209891 51.82484381 6.90234375 50.34375 C6.9037587 49.55601196 6.90517365 48.76827393 6.90663147 47.95666504 C6.91217388 45.47106936 6.92471515 42.98556789 6.9375 40.5 C6.94252246 38.80208465 6.94708405 37.10416786 6.95117188 35.40625 C6.96212436 31.27079771 6.97934834 27.13541476 7 23 C5.700625 23.020625 4.40125 23.04125 3.0625 23.0625 C1.70834367 23.08399454 0.35243917 23.07148199 -1 23 C-2.81566671 21.18433329 -2.17336216 18.44301931 -2.1875 16 C-2.15633934 10.34745649 -1.47602445 5.44284015 0 0 Z " fill="#FA6B9A" transform="translate(73,132)"/>
<path d="M0 0 C2.64680904 0.11339204 5.29177518 0.24012873 7.9375 0.375 C9.06961914 0.42140625 9.06961914 0.42140625 10.22460938 0.46875 C12.15507395 0.5726315 14.07942081 0.77895614 16 1 C16.33 1.66 16.66 2.32 17 3 C16.01 3 15.02 3 14 3 C14 13.89 14 24.78 14 36 C24.23 36 34.46 36 45 36 C45 35.01 45 34.02 45 33 C44.34 33 43.68 33 43 33 C43.33 31.68 43.66 30.36 44 29 C45.06652192 31.30368736 46.06421005 33.64018187 47 36 C46.505 36.99 46.505 36.99 46 38 C34.78 38 23.56 38 12 38 C12 26.12 12 14.24 12 2 C8.37 2 4.74 2 1 2 C0.67 1.34 0.34 0.68 0 0 Z " fill="#EED9E1" transform="translate(171,81)"/>
<path d="M0 0 C10.89 0 21.78 0 33 0 C33 1.32 33 2.64 33 4 C22.11 4 11.22 4 0 4 C0 2.68 0 1.36 0 0 Z " fill="#FDF9FB" transform="translate(0,0)"/>
<path d="M0 0 C0.99 0 1.98 0 3 0 C3 11.55 3 23.1 3 35 C2.01 35 1.02 35 0 35 C0 23.45 0 11.9 0 0 Z " fill="#F0ECEE" transform="translate(33,156)"/>
<path d="M0 0 C3.875 1.875 3.875 1.875 5 3 C8.10085221 3.16041193 11.18187579 3.25963402 14.28515625 3.31640625 C15.68138466 3.3475779 15.68138466 3.3475779 17.1058197 3.37937927 C20.09130182 3.44497931 23.07687484 3.50380802 26.0625 3.5625 C28.08138976 3.6056753 30.1002702 3.64928925 32.11914062 3.69335938 C37.07933297 3.80067129 42.03961709 3.90190888 47 4 C47 4.66 47 5.32 47 6 C35.12 6 23.24 6 11 6 C10.67 7.32 10.34 8.64 10 10 C8.33037631 8.52417192 6.6643694 7.04425109 5 5.5625 C4.071875 4.73878906 3.14375 3.91507812 2.1875 3.06640625 C1.465625 2.38449219 0.74375 1.70257813 0 1 C0 0.67 0 0.34 0 0 Z " fill="#EDE9EB" transform="translate(211,75)"/>
<path d="M0 0 C0.99 0 1.98 0 3 0 C3 11.55 3 23.1 3 35 C2.01 35 1.02 35 0 35 C0 23.45 0 11.9 0 0 Z " fill="#EEEBED" transform="translate(220,44)"/>
<path d="M0 0 C6.07831019 9.11746528 5.3599578 20.49456502 5 31 C1.7 31 -1.6 31 -5 31 C-5 30.67 -5 30.34 -5 30 C-3.02 30 -1.04 30 1 30 C0.67 20.1 0.34 10.2 0 0 Z " fill="#F4CCDA" transform="translate(220,123)"/>
<path d="M0 0 C10.89 0 21.78 0 33 0 C33 0.99 33 1.98 33 3 C22.11 3 11.22 3 0 3 C0 2.01 0 1.02 0 0 Z " fill="#EFEBED" transform="translate(0,228)"/>
<path d="M0 0 C10.89 0 21.78 0 33 0 C33 0.99 33 1.98 33 3 C22.11 3 11.22 3 0 3 C0 2.01 0 1.02 0 0 Z " fill="#F0ECEE" transform="translate(0,153)"/>
<path d="M0 0 C1.60031344 3.20062687 0.03173691 5.72271806 -1 9 C-0.34547852 8.92273682 0.30904297 8.84547363 0.98339844 8.76586914 C10.44883876 7.8008442 19.76395947 8.09753673 29.25 8.4375 C30.88148986 8.49086649 32.51300039 8.54360519 34.14453125 8.59570312 C38.09662923 8.72324554 42.04835182 8.8592345 46 9 C46 9.33 46 9.66 46 10 C30.16 10.33 14.32 10.66 -2 11 C-3.98 15.455 -3.98 15.455 -6 20 C-6.66 20 -7.32 20 -8 20 C-6.59128327 15.68211942 -5.06140508 11.42904312 -3.4375 7.1875 C-3.00308594 6.04667969 -2.56867188 4.90585938 -2.12109375 3.73046875 C-1 1 -1 1 0 0 Z " fill="#EFC9D6" transform="translate(249,220)"/>
<path d="M0 0 C0.495 0.99 0.495 0.99 1 2 C0.67 2.99 0.34 3.98 0 5 C-0.66 5 -1.32 5 -2 5 C-1.95875 6.258125 -1.9175 7.51625 -1.875 8.8125 C-1.7609626 12.29064073 -1.94074319 12.91111478 -4 16 C-3.67 12.04 -3.34 8.08 -3 4 C-4.13308594 4.01160156 -5.26617187 4.02320312 -6.43359375 4.03515625 C-23.30232196 4.14681191 -40.14364175 3.5739374 -57 3 C-57 2.67 -57 2.34 -57 2 C-51.60432365 1.82799709 -46.20848773 1.66193805 -40.8125 1.5 C-40.01732971 1.47599121 -39.22215942 1.45198242 -38.40289307 1.42724609 C-27.8592373 1.11325133 -17.32991026 0.88621941 -6.78051758 1.03710938 C-4.85375411 1.05820014 -2.92656478 1.03479124 -1 1 C-0.67 0.67 -0.34 0.34 0 0 Z " fill="#ECD1DB" transform="translate(57,115)"/>
<path d="M0 0 C0.66 0.33 1.32 0.66 2 1 C1.67 1.33 1.34 1.66 1 2 C0.84028023 4.37338639 0.7407567 6.72118272 0.68359375 9.09765625 C0.66281265 9.80651474 0.64203156 10.51537323 0.62062073 11.24571228 C0.55505402 13.51787305 0.4962077 15.79015264 0.4375 18.0625 C0.39432151 19.59962183 0.35070745 21.1367315 0.30664062 22.67382812 C0.19936551 26.4490959 0.09811863 30.2244836 0 34 C-0.66 34 -1.32 34 -2 34 C-2 24.1 -2 14.2 -2 4 C-3.32 4.99 -4.64 5.98 -6 7 C-6.66 6.67 -7.32 6.34 -8 6 C-5.38485683 3.87961365 -2.80362384 1.86908256 0 0 Z " fill="#F0DBE2" transform="translate(110,82)"/>
<path d="M0 0 C0.639375 0.53625 1.27875 1.0725 1.9375 1.625 C1.9375 2.615 1.9375 3.605 1.9375 4.625 C1.504375 4.150625 1.07125 3.67625 0.625 3.1875 C-2.40750061 0.37962907 -5.79581628 0.38813866 -9.75 0.0625 C-10.74386719 -0.02128906 -11.73773438 -0.10507812 -12.76171875 -0.19140625 C-13.90060547 -0.28228516 -13.90060547 -0.28228516 -15.0625 -0.375 C-15.495625 0.54539063 -15.495625 0.54539063 -15.9375 1.484375 C-17.28777699 4.05365206 -18.88497304 5.71966391 -21.0625 7.625 C-21.7225 7.625 -22.3825 7.625 -23.0625 7.625 C-22.4025 12.245 -21.7425 16.865 -21.0625 21.625 C-23.0625 20.625 -23.0625 20.625 -24.0625 17.625 C-25.19841411 7.28818164 -25.19841411 7.28818164 -22 3.125 C-14.97990384 -2.84954992 -8.28973418 -3.72192147 0 0 Z " fill="#FC86AD" transform="translate(187.0625,55.375)"/>
<path d="M0 0 C0.99 0.33 1.98 0.66 3 1 C2.67 6.28 2.34 11.56 2 17 C6.62 16.67 11.24 16.34 16 16 C16 16.33 16 16.66 16 17 C11.68282372 18.06035909 7.48133489 18.14961746 3.0625 18.125 C2.37220703 18.12886719 1.68191406 18.13273437 0.97070312 18.13671875 C-3.12408324 18.12895612 -6.98358696 17.79196877 -11 17 C-11 16.67 -11 16.34 -11 16 C-7.37 16 -3.74 16 0 16 C0 10.72 0 5.44 0 0 Z " fill="#F5C7D6" transform="translate(145,236)"/>
<path d="M0 0 C3.96 0 7.92 0 12 0 C11.67 1.98 11.34 3.96 11 6 C11.825 6.61875 12.65 7.2375 13.5 7.875 C14.325 8.57625 15.15 9.2775 16 10 C16 10.66 16 11.32 16 12 C11.66923089 10.55113209 8.68128855 8.351329 5.1875 5.4375 C4.21167969 4.63183594 3.23585937 3.82617188 2.23046875 2.99609375 C1.49441406 2.33738281 0.75835937 1.67867187 0 1 C0 0.67 0 0.34 0 0 Z " fill="#FCC4D7" transform="translate(188,228)"/>
<path d="M0 0 C6.6 0 13.2 0 20 0 C18.35 2.31 16.7 4.62 15 7 C14.67 5.68 14.34 4.36 14 3 C13.32453125 3.02320313 12.6490625 3.04640625 11.953125 3.0703125 C10.61507812 3.09738281 10.61507812 3.09738281 9.25 3.125 C8.36828125 3.14820313 7.4865625 3.17140625 6.578125 3.1953125 C3.8864142 2.99139502 2.30095026 2.36551721 0 1 C0 0.67 0 0.34 0 0 Z " fill="#F4C9D7" transform="translate(245,266)"/>
<path d="M0 0 C0.66 0.33 1.32 0.66 2 1 C-10.44738834 15.02800908 -10.44738834 15.02800908 -14 18 C-14.66 18 -15.32 18 -16 18 C-12.48793278 10.46710816 -6.28139203 5.24512177 0 0 Z " fill="#FB5D90" transform="translate(88,72)"/>
<path d="M0 0 C-0.33 5.94 -0.66 11.88 -1 18 C-1.66 18 -2.32 18 -3 18 C-3 12.72 -3 7.44 -3 2 C-5.31 2.33 -7.62 2.66 -10 3 C-6.26223701 0.50815801 -4.5227786 0 0 0 Z " fill="#EFD6DF" transform="translate(186,287)"/>
<path d="M0 0 C0.33 0.66 0.66 1.32 1 2 C4.27555608 2.47001033 4.27555608 2.47001033 8.0625 2.625 C9.99802734 2.73714844 9.99802734 2.73714844 11.97265625 2.8515625 C13.47119141 2.92503906 13.47119141 2.92503906 15 3 C15 3.66 15 4.32 15 5 C4.11 5.495 4.11 5.495 -7 6 C-5.35 4.68 -3.7 3.36 -2 2 C-1.34 1.34 -0.68 0.68 0 0 Z " fill="#F0D5DE" transform="translate(131,76)"/>
<path d="M0 0 C-0.9080162 1.13199353 -1.82683826 2.25532363 -2.75 3.375 C-3.26046875 4.00148438 -3.7709375 4.62796875 -4.296875 5.2734375 C-6.08199481 7.08312318 -7.67949644 8.00117455 -10 9 C-10.35789474 3.63157895 -10.35789474 3.63157895 -8.9375 1.125 C-5.99772876 -0.58196395 -3.32129197 -0.18799766 0 0 Z " fill="#F5E5EB" transform="translate(82,78)"/>
<path d="M0 0 C0 0.33 0 0.66 0 1 C-0.928125 1.268125 -1.85625 1.53625 -2.8125 1.8125 C-6.6075441 3.09659434 -6.6075441 3.09659434 -9 6 C-9.58842374 10.46454837 -9.53917589 13.19123617 -7 17 C-10.875 15.25 -10.875 15.25 -12 13 C-12.36744365 8.5171875 -12.51708331 6.03416662 -10.5 2 C-6.88152311 -0.89478151 -4.54718722 -0.37893227 0 0 Z " fill="#FDA5C2" transform="translate(286,277)"/>
<path d="M0 0 C4.13813705 0.53176995 6.27082318 2.77932166 9.25 5.5625 C10.14203125 6.38878906 11.0340625 7.21507812 11.953125 8.06640625 C12.62859375 8.70449219 13.3040625 9.34257812 14 10 C13.34 11.32 12.68 12.64 12 14 C7.93521893 9.38465781 3.91391705 4.74414188 0 0 Z " fill="#FDCEDE" transform="translate(191,265)"/>
<path d="M0 0 C0.66 0.33 1.32 0.66 2 1 C-2.32893185 6.18419194 -6.76564995 10.72706118 -12 15 C-12 12 -12 12 -9.375 9.08203125 C-8.25750594 7.98449244 -7.13214357 6.89492105 -6 5.8125 C-5.42765625 5.25369141 -4.8553125 4.69488281 -4.265625 4.11914062 C-2.85037212 2.73926907 -1.42602845 1.36873266 0 0 Z " fill="#FDCEDE" transform="translate(100,89)"/>
<path d="M0 0 C3.45854519 3.45854519 4 7.21904213 4 12 C-4.415 12.495 -4.415 12.495 -13 13 C-13 12.01 -13 11.02 -13 10 C-7.72 10.33 -2.44 10.66 3 11 C2.01 8.69 1.02 6.38 0 4 C0 2.68 0 1.36 0 0 Z " fill="#EFC5D3" transform="translate(46,218)"/>
<path d="M0 0 C3.875 1.875 3.875 1.875 5 3 C7.32817964 3.36760731 9.6618385 3.70241581 12 4 C11.67 5.98 11.34 7.96 11 10 C6.32751069 7.17477391 3.34003602 4.32239956 0 0 Z " fill="#F0C6D4" transform="translate(211,75)"/>
<path d="M0 0 C6 2 6 2 7 4 C5.35 3.67 3.7 3.34 2 3 C2.33 8.94 2.66 14.88 3 21 C2.01 21 1.02 21 0 21 C0 14.07 0 7.14 0 0 Z " fill="#EBCCD7" transform="translate(220,284)"/>
<path d="M0 0 C3.96 0 7.92 0 12 0 C11.34 1.65 10.68 3.3 10 5 C9.67 4.01 9.34 3.02 9 2 C5.88214887 2.64644661 5.88214887 2.64644661 5 5 C3.35 3.35 1.7 1.7 0 0 Z " fill="#F2D3DD" transform="translate(188,228)"/>
<path d="M0 0 C0.66 0 1.32 0 2 0 C3.38442 1.96498322 4.71203834 3.97048465 6 6 C6.98866506 7.34175973 7.9838154 8.67896002 9 10 C8.443125 9.71125 7.88625 9.4225 7.3125 9.125 C4.91505355 7.9586747 2.48403061 6.9660119 0 6 C0 4.02 0 2.04 0 0 Z " fill="#F3BFD0" transform="translate(258,297)"/>
<path d="M0 0 C1.16959987 0.97566112 2.33561177 1.955625 3.5 2.9375 C4.1496875 3.48277344 4.799375 4.02804687 5.46875 4.58984375 C5.9740625 5.05519531 6.479375 5.52054687 7 6 C7 6.33 7 6.66 7 7 C4.69 7 2.38 7 0 7 C0 4.69 0 2.38 0 0 Z " fill="#ECD1DA" transform="translate(71,261)"/>
<path d="M0 0 C6.6 0 13.2 0 20 0 C17 3 17 3 15.09887695 3.15698242 C14.05413208 3.00773315 14.05413208 3.00773315 12.98828125 2.85546875 C11.85229492 2.70561523 11.85229492 2.70561523 10.69335938 2.55273438 C9.90767578 2.43220703 9.12199219 2.31167969 8.3125 2.1875 C7.51521484 2.07857422 6.71792969 1.96964844 5.89648438 1.85742188 C3.92889137 1.58643601 1.96411387 1.29514792 0 1 C0 0.67 0 0.34 0 0 Z " fill="#E6D5DC" transform="translate(245,266)"/>
<path d="M0 0 C2.05078125 0.03255208 4.1015625 0.06510417 6.15234375 0.09765625 C6.15234375 0.42765625 6.15234375 0.75765625 6.15234375 1.09765625 C4.79109375 1.49984375 4.79109375 1.49984375 3.40234375 1.91015625 C0.43762412 2.99341919 -1.46463165 4.08125082 -3.84765625 6.09765625 C-2.77957394 0.14691194 -2.77957394 0.14691194 0 0 Z " fill="#FDCADB" transform="translate(279.84765625,276.90234375)"/>
<path d="M0 0 C4.62 0 9.24 0 14 0 C14 0.99 14 1.98 14 3 C12.68 3 11.36 3 10 3 C10 2.34 10 1.68 10 1 C6.7 1 3.4 1 0 1 C0 0.67 0 0.34 0 0 Z " fill="#EFC7D4" transform="translate(246,153)"/>
<path d="M0 0 C3.25543229 0.34879632 4.01873107 1.02133261 6.25 3.5625 C6.8275 4.366875 7.405 5.17125 8 6 C5 6 5 6 3.61328125 4.6875 C2.40885417 3.125 1.20442708 1.5625 0 0 Z " fill="#FA8EB1" transform="translate(191,265)"/>
</svg>
